<svg width="46" height="41" viewBox="0 0 46 41" fill="none" xmlns="http://www.w3.org/2000/svg">
<path d="M27.507 27.0774C27.0971 27.0774 26.7456 26.7467 26.7456 26.3388C26.7456 25.9309 27.0587 25.6001 27.4685 25.6001H27.507C27.9168 25.6001 28.2491 25.9309 28.2491 26.3388C28.2491 26.7467 27.9168 27.0774 27.507 27.0774Z" fill="#6DA7FF"/>
<path d="M32.9152 27.0774C32.5054 27.0774 32.1528 26.7467 32.1528 26.3388C32.1528 25.9309 32.4645 25.6001 32.8743 25.6001H32.9153C33.3251 25.6001 33.6574 25.9309 33.6574 26.3388C33.6574 26.7467 33.325 27.0774 32.9152 27.0774Z" fill="#6DA7FF"/>
<path d="M38.321 27.0774C37.9112 27.0774 37.5586 26.7467 37.5586 26.3388C37.5586 25.9309 37.8702 25.6001 38.2801 25.6001H38.3211C38.7309 25.6001 39.0632 25.9309 39.0632 26.3388C39.0632 26.7467 38.7309 27.0774 38.321 27.0774Z" fill="#6DA7FF"/>
<path d="M8.59102 15.4681C8.18122 15.4681 7.82715 15.1373 7.82715 14.7294C7.82715 14.3215 8.13736 13.9907 8.54716 13.9907H8.59102C9.00082 13.9907 9.33314 14.3215 9.33314 14.7294C9.33314 15.1373 9.00082 15.4681 8.59102 15.4681Z" fill="#6DA7FF"/>
<path d="M14.6535 15.4681C14.2437 15.4681 13.8896 15.1373 13.8896 14.7294C13.8896 14.3215 14.2002 13.9907 14.61 13.9907H14.6535C15.0633 13.9907 15.3956 14.3215 15.3956 14.7294C15.3956 15.1373 15.0634 15.4681 14.6535 15.4681Z" fill="#6DA7FF"/>
<path d="M20.716 15.4681C20.3062 15.4681 19.9521 15.1373 19.9521 14.7294C19.9521 14.3215 20.2627 13.9907 20.6725 13.9907H20.716C21.1258 13.9907 21.4581 14.3215 21.4581 14.7294C21.4581 15.1373 21.1258 15.4681 20.716 15.4681Z" fill="#6DA7FF"/>
<path d="M41.2066 16.1225C38.4921 13.9022 35.0721 12.8685 31.5756 13.2075C30.7909 13.284 30.027 13.4373 29.2833 13.6447C29.1311 11.315 28.4158 9.04834 27.1902 7.03552C25.1613 3.70211 21.9504 1.35482 18.148 0.42601C14.3464 -0.502725 10.4075 0.0984821 7.05965 2.11794C0.146818 6.28636 -2.07013 15.2752 2.11768 22.1563C2.45067 22.7013 2.81847 23.225 3.21492 23.7183L1.64116 28.488C1.55567 28.748 1.6212 29.0337 1.81185 29.231C1.95389 29.3774 2.14774 29.4572 2.34633 29.4572C2.41483 29.4572 2.4837 29.4478 2.55145 29.4283L8.3551 27.768C12.0055 29.4969 16.1378 29.6509 19.8776 28.2249C20.3512 31.3011 21.9042 34.2232 24.5032 36.3501C27.9363 39.1591 32.4847 40.0453 36.7262 38.7479L41.608 40.9351C41.7054 40.9787 41.8095 41 41.9127 41C42.0747 41 42.2356 40.947 42.3682 40.8446C42.5853 40.6765 42.6911 40.4031 42.6436 40.1337L41.8725 35.7666C42.2776 35.385 42.6606 34.9763 43.0147 34.5478C47.6183 28.9714 46.8069 20.7057 41.2066 16.1225ZM8.75629 26.319C8.58998 26.2368 8.39903 26.219 8.21929 26.2699L3.48898 27.6232L4.75253 23.7931C4.83297 23.5489 4.78043 23.2806 4.61338 23.0847C4.16513 22.5588 3.75207 21.9882 3.38679 21.3899C-0.376751 15.2064 1.61593 7.12786 7.82901 3.38145C10.8374 1.56579 14.3759 1.02618 17.7944 1.86044C21.2115 2.69544 24.0974 4.80502 25.9208 7.80123C27.0921 9.72444 27.7371 11.9063 27.8145 14.1388C25.8421 14.9503 24.0885 16.2374 22.6954 17.9252C20.5845 20.4821 19.6255 23.6035 19.7311 26.6767C16.1908 28.1561 12.2205 28.0431 8.75629 26.319ZM41.8682 33.6098C41.4747 34.0862 41.041 34.5349 40.5786 34.944C40.3858 35.1142 40.2959 35.3717 40.3405 35.6242L40.9391 39.0153L37.0763 37.2844C36.9795 37.2411 36.8755 37.2195 36.7715 37.2195C36.6929 37.2195 36.6139 37.2317 36.5381 37.257C32.7054 38.5204 28.5581 37.7562 25.4461 35.209C20.4774 31.1431 19.758 23.8104 23.8419 18.863C25.8204 16.4663 28.6183 14.9799 31.7201 14.678C34.8234 14.3772 37.8561 15.2944 40.264 17.2637C45.2324 21.3297 45.9518 28.6627 41.8682 33.6098Z" fill="#6DA7FF"/>
</svg>
