<svg width="37" height="37" viewBox="0 0 37 37" fill="none" xmlns="http://www.w3.org/2000/svg">
<path d="M18.1453 0C18.1405 0 18.1341 0.000814522 18.1293 0.000814522C18.1237 0.000814522 18.1189 0 18.1133 0C8.11038 0 0 8.25436 0 18.4375C0 28.619 8.11038 36.8742 18.1133 36.8742C18.1189 36.8742 18.1237 36.8742 18.1293 36.8742C18.1341 36.8742 18.1405 36.8742 18.1453 36.8742C28.1483 36.8742 36.2586 28.619 36.2586 18.4375C36.2594 8.25436 28.1491 0 18.1453 0ZM18.1453 31.5961C18.1405 31.5961 18.1341 31.5953 18.1293 31.5953C18.1237 31.5953 18.1189 31.5961 18.1133 31.5961C16.476 31.5961 15.1484 30.2456 15.1484 28.5783C15.1484 26.9126 16.476 25.5621 18.1133 25.5621C18.1189 25.5621 18.1237 25.5621 18.1293 25.5621C18.1341 25.5621 18.1405 25.5621 18.1453 25.5621C19.7818 25.5621 21.111 26.9126 21.111 28.5783C21.111 30.2448 19.7842 31.5961 18.1453 31.5961ZM22.397 8.59972C22.2033 11.611 20.8509 20.5667 20.8509 20.5667C20.8509 22.0768 19.6354 23.3002 18.1517 23.3002C18.1437 23.3002 18.1357 23.3002 18.1285 23.3002C18.1213 23.3002 18.1125 23.3002 18.1053 23.3002C16.6225 23.3002 15.4069 22.0752 15.4069 20.5667C15.4069 20.5667 14.0553 11.611 13.8617 8.59972C13.7656 7.09204 14.9004 4.29253 18.1061 4.29253C18.1141 4.29253 18.1221 4.29334 18.1293 4.29334C18.1365 4.29334 18.1445 4.29253 18.1525 4.29253C21.3575 4.29253 22.4938 7.09204 22.397 8.59972Z" fill="#284CFF"/>
</svg>
