<svg width="50" height="45" viewBox="0 0 50 45" fill="none" xmlns="http://www.w3.org/2000/svg">
<path d="M36.4892 42.3501H2.41998V2.41998H36.4891C37.1572 2.41998 37.699 1.87814 37.699 1.20989C37.699 0.54174 37.1569 0 36.4891 0H1.21009C0.541844 0 0 0.541844 0 1.20989V43.5599C0 44.2281 0.541844 44.77 1.21009 44.77H36.4892C37.1573 44.77 37.6991 44.228 37.6991 43.5599C37.6991 42.8919 37.1572 42.3501 36.4892 42.3501Z" fill="#284CFF"/>
<path d="M49.6454 20.7849L42.1844 13.3228C41.7117 12.8501 40.9461 12.8501 40.4735 13.3228C40.0008 13.7949 40.0008 14.5611 40.4735 15.0337L45.8689 20.4304H23.258C22.5898 20.4304 22.0481 20.9722 22.0481 21.6403C22.0481 22.3085 22.5899 22.8504 23.258 22.8504H45.8689L40.4735 28.2456C40.0008 28.7183 40.0008 29.4841 40.4735 29.9566C40.7098 30.1927 41.0194 30.3109 41.3291 30.3109C41.6385 30.3109 41.9481 30.1927 42.1844 29.9566L49.6454 22.4956C50.1181 22.0232 50.1181 21.2574 49.6454 20.7849Z" fill="#284CFF"/>
</svg>
