<svg width="55" height="55" viewBox="0 0 55 55" fill="none" xmlns="http://www.w3.org/2000/svg">
<rect width="55" height="55" rx="15.0685" fill="white"/>
<path d="M0.357956 31.9182V25.7971H8.00033V25.4391H0.357956V19.855H8.48357V19.4971H0V32.2761H8.55516V31.9182H0.357956ZM15.4458 23.0766L12.2779 27.2468L9.18158 23.0766H8.71624L12.0631 27.5153L8.39408 32.2761H8.82363L12.2779 27.7838L15.7501 32.2761H16.1975L12.5106 27.5153L15.8754 23.0766H15.4458ZM17.2714 35.4261V29.6988H17.3072C17.522 30.5341 17.9455 31.2052 18.5779 31.7123C19.2103 32.2194 20.0157 32.473 20.9941 32.473C21.6265 32.473 22.1873 32.3447 22.6765 32.0882C23.1657 31.8317 23.5744 31.4826 23.9025 31.0412C24.2307 30.5997 24.4812 30.0866 24.6542 29.502C24.8273 28.9173 24.9138 28.3028 24.9138 27.6585C24.9138 26.9664 24.8243 26.3281 24.6453 25.7434C24.4663 25.1587 24.2068 24.6516 23.8667 24.2221C23.5267 23.7925 23.115 23.4585 22.6318 23.2198C22.1485 22.9812 21.6027 22.8619 20.9941 22.8619C20.5288 22.8619 20.0963 22.9305 19.6966 23.0677C19.2968 23.2049 18.9419 23.3988 18.6316 23.6494C18.3214 23.8999 18.0529 24.1952 17.8262 24.5353C17.5995 24.8754 17.4265 25.2482 17.3072 25.6539H17.2714V23.0766H16.9134V35.4261H17.2714ZM20.9941 32.1329C19.8725 32.1329 18.9717 31.7481 18.2916 30.9785C17.6115 30.2089 17.2714 29.1022 17.2714 27.6585C17.2714 27.0619 17.3549 26.4951 17.522 25.9582C17.689 25.4212 17.9306 24.9499 18.2468 24.5443C18.563 24.1386 18.9538 23.8164 19.4191 23.5778C19.8845 23.3391 20.4095 23.2198 20.9941 23.2198C21.5907 23.2198 22.1128 23.3391 22.5602 23.5778C23.0076 23.8164 23.3775 24.1416 23.6699 24.5532C23.9622 24.9649 24.1829 25.4362 24.3321 25.9671C24.4812 26.4981 24.5558 27.0619 24.5558 27.6585C24.5558 28.1954 24.4872 28.7294 24.35 29.2603C24.2128 29.7913 24.001 30.2686 23.7146 30.6922C23.4282 31.1157 23.0613 31.4618 22.6139 31.7302C22.1664 31.9987 21.6265 32.1329 20.9941 32.1329ZM26.8825 32.2761V27.0678C26.8825 26.5667 26.9541 26.0775 27.0973 25.6002C27.2405 25.123 27.4612 24.7024 27.7595 24.3384C28.0578 23.9745 28.4366 23.6881 28.896 23.4793C29.3554 23.2705 29.9013 23.184 30.5337 23.2198V22.8619C29.9848 22.8499 29.5046 22.9096 29.0929 23.0408C28.6813 23.1721 28.3263 23.3511 28.028 23.5778C27.7297 23.8045 27.4911 24.07 27.3121 24.3742C27.1331 24.6785 27.0018 25.0036 26.9183 25.3497H26.8825V23.0766H26.5246V32.2761H26.8825ZM30.9811 27.748H38.6772C38.7011 27.1156 38.6384 26.5071 38.4893 25.9224C38.3401 25.3377 38.1015 24.8187 37.7733 24.3653C37.4452 23.9119 37.0216 23.5479 36.5026 23.2735C35.9836 22.9991 35.3661 22.8619 34.6502 22.8619C34.1371 22.8619 33.636 22.9692 33.1468 23.184C32.6576 23.3988 32.228 23.712 31.8581 24.1237C31.4882 24.5353 31.1899 25.0394 30.9632 25.636C30.7365 26.2326 30.6232 26.9127 30.6232 27.6764C30.6232 28.3565 30.7007 28.9919 30.8558 29.5825C31.011 30.1731 31.2496 30.6862 31.5718 31.1217C31.8939 31.5572 32.3085 31.8943 32.8157 32.1329C33.3228 32.3716 33.9343 32.4849 34.6502 32.473C35.7002 32.473 36.5831 32.1777 37.2991 31.587C38.015 30.9964 38.4385 30.1642 38.5698 29.0903H38.2118C38.0567 30.1045 37.66 30.8652 37.0216 31.3723C36.3833 31.8794 35.5809 32.1329 34.6144 32.1329C33.9581 32.1329 33.4033 32.0196 32.9499 31.7929C32.4965 31.5662 32.1266 31.2559 31.8402 30.8622C31.5539 30.4684 31.3421 30.0061 31.2048 29.4751C31.0676 28.9441 30.9931 28.3684 30.9811 27.748ZM38.3192 27.39H30.9811C31.0169 26.7457 31.1362 26.167 31.3391 25.6539C31.5419 25.1408 31.8074 24.7024 32.1355 24.3384C32.4637 23.9745 32.8455 23.6971 33.281 23.5062C33.7165 23.3153 34.1848 23.2198 34.686 23.2198C35.2826 23.2198 35.8076 23.3302 36.261 23.5509C36.7144 23.7717 37.0932 24.0729 37.3975 24.4548C37.7018 24.8366 37.9314 25.281 38.0866 25.7882C38.2417 26.2953 38.3192 26.8292 38.3192 27.39ZM46.1048 25.7971H46.4627C46.4627 24.771 46.1644 24.0252 45.5678 23.5599C44.9713 23.0945 44.1599 22.8619 43.1337 22.8619C42.561 22.8619 42.0778 22.9335 41.684 23.0766C41.2903 23.2198 40.9681 23.4048 40.7175 23.6315C40.467 23.8582 40.288 24.1087 40.1806 24.3832C40.0732 24.6576 40.0195 24.9201 40.0195 25.1707C40.0195 25.6718 40.109 26.0715 40.288 26.3698C40.467 26.6681 40.7474 26.9008 41.1292 27.0678C41.3917 27.1872 41.69 27.2946 42.0241 27.39C42.3582 27.4855 42.746 27.5869 43.1874 27.6943C43.5812 27.7897 43.969 27.8852 44.3508 27.9806C44.7326 28.0761 45.0697 28.2044 45.362 28.3654C45.6544 28.5265 45.893 28.7323 46.0779 28.9829C46.2629 29.2335 46.3554 29.5616 46.3554 29.9673C46.3554 30.361 46.2629 30.6951 46.0779 30.9696C45.893 31.244 45.6573 31.4677 45.371 31.6407C45.0846 31.8138 44.7654 31.939 44.4134 32.0166C44.0614 32.0942 43.7184 32.1329 43.3843 32.1329C42.2985 32.1329 41.4663 31.8913 40.8876 31.4081C40.3089 30.9248 40.0195 30.1642 40.0195 29.1261H39.6616C39.6616 30.2835 39.9748 31.1307 40.6012 31.6676C41.2276 32.2045 42.1553 32.473 43.3843 32.473C43.7781 32.473 44.1748 32.4282 44.5745 32.3388C44.9742 32.2493 45.3322 32.1031 45.6484 31.9003C45.9646 31.6974 46.2211 31.4349 46.418 31.1128C46.6149 30.7906 46.7133 30.3968 46.7133 29.9315C46.7133 29.49 46.6268 29.1321 46.4538 28.8576C46.2808 28.5832 46.0541 28.3565 45.7737 28.1775C45.4933 27.9985 45.1771 27.8583 44.8251 27.7569C44.4731 27.6555 44.1181 27.5571 43.7602 27.4616C43.259 27.3303 42.8205 27.217 42.4447 27.1215C42.0688 27.0261 41.7198 26.9127 41.3977 26.7815C41.0874 26.6502 40.8398 26.4623 40.6549 26.2177C40.47 25.9731 40.3775 25.6241 40.3775 25.1707C40.3775 25.0872 40.4013 24.938 40.4491 24.7232C40.4968 24.5085 40.6101 24.2907 40.7891 24.07C40.9681 23.8492 41.2425 23.6523 41.6124 23.4793C41.9823 23.3063 42.4894 23.2198 43.1337 23.2198C43.5752 23.2198 43.9779 23.2675 44.3418 23.363C44.7058 23.4585 45.019 23.6106 45.2815 23.8194C45.544 24.0282 45.7468 24.2937 45.89 24.6158C46.0332 24.938 46.1048 25.3318 46.1048 25.7971ZM54.3915 25.7971H54.7494C54.7494 24.771 54.4511 24.0252 53.8545 23.5599C53.2579 23.0945 52.4466 22.8619 51.4204 22.8619C50.8477 22.8619 50.3645 22.9335 49.9707 23.0766C49.577 23.2198 49.2548 23.4048 49.0042 23.6315C48.7537 23.8582 48.5747 24.1087 48.4673 24.3832C48.3599 24.6576 48.3062 24.9201 48.3062 25.1707C48.3062 25.6718 48.3957 26.0715 48.5747 26.3698C48.7537 26.6681 49.0341 26.9008 49.4159 27.0678C49.6784 27.1872 49.9767 27.2946 50.3108 27.39C50.6449 27.4855 51.0326 27.5869 51.4741 27.6943C51.8679 27.7897 52.2557 27.8852 52.6375 27.9806C53.0193 28.0761 53.3564 28.2044 53.6487 28.3654C53.941 28.5265 54.1797 28.7323 54.3646 28.9829C54.5496 29.2335 54.642 29.5616 54.642 29.9673C54.642 30.361 54.5496 30.6951 54.3646 30.9696C54.1797 31.244 53.944 31.4677 53.6577 31.6407C53.3713 31.8138 53.0521 31.939 52.7001 32.0166C52.3481 32.0942 52.0051 32.1329 51.671 32.1329C50.5852 32.1329 49.753 31.8913 49.1743 31.4081C48.5956 30.9248 48.3062 30.1642 48.3062 29.1261H47.9483C47.9483 30.2835 48.2615 31.1307 48.8879 31.6676C49.5143 32.2045 50.442 32.473 51.671 32.473C52.0648 32.473 52.4615 32.4282 52.8612 32.3388C53.2609 32.2493 53.6189 32.1031 53.9351 31.9003C54.2513 31.6974 54.5078 31.4349 54.7047 31.1128C54.9016 30.7906 55 30.3968 55 29.9315C55 29.49 54.9135 29.1321 54.7405 28.8576C54.5675 28.5832 54.3408 28.3565 54.0604 28.1775C53.78 27.9985 53.4638 27.8583 53.1118 27.7569C52.7598 27.6555 52.4048 27.5571 52.0469 27.4616C51.5457 27.3303 51.1072 27.217 50.7314 27.1215C50.3555 27.0261 50.0065 26.9127 49.6843 26.7815C49.3741 26.6502 49.1265 26.4623 48.9416 26.2177C48.7566 25.9731 48.6642 25.6241 48.6642 25.1707C48.6642 25.0872 48.688 24.938 48.7358 24.7232C48.7835 24.5085 48.8968 24.2907 49.0758 24.07C49.2548 23.8492 49.5292 23.6523 49.8991 23.4793C50.269 23.3063 50.7761 23.2198 51.4204 23.2198C51.8619 23.2198 52.2646 23.2675 52.6285 23.363C52.9925 23.4585 53.3057 23.6106 53.5682 23.8194C53.8307 24.0282 54.0335 24.2937 54.1767 24.6158C54.3199 24.938 54.3915 25.3318 54.3915 25.7971Z" fill="#222222"/>
</svg>
