<svg width="37" height="37" viewBox="0 0 37 37" fill="none" xmlns="http://www.w3.org/2000/svg">
<path d="M36.1501 18.3788C36.1501 22.0138 35.09 25.5671 33.1039 28.5895C31.1178 31.6119 28.2948 33.9676 24.9921 35.3586C21.6893 36.7497 18.055 37.1136 14.5488 36.4045C11.0426 35.6953 7.8219 33.9449 5.29406 31.3746C2.76622 28.8043 1.04474 25.5295 0.347315 21.9643C-0.350114 18.3992 0.00783157 14.7038 1.37589 11.3455C2.74394 7.98725 5.06067 5.11688 8.03309 3.09739C11.0055 1.0779 14.5001 0 18.075 0C22.8688 0 27.4663 1.93633 30.856 5.38303C34.2457 8.82972 36.1501 13.5044 36.1501 18.3788ZM29.4397 18.3926C29.4397 16.1071 28.7732 13.8729 27.5244 11.9726C26.2757 10.0723 24.5007 8.59116 22.4241 7.71654C20.3475 6.84192 18.0624 6.61308 15.8579 7.05895C13.6534 7.50483 11.6284 8.6054 10.039 10.2215C8.44962 11.8376 7.36724 13.8966 6.92873 16.1382C6.49022 18.3798 6.71528 20.7032 7.57545 22.8148C8.43561 24.9263 9.89225 26.731 11.7612 28.0008C13.6301 29.2705 15.8273 29.9483 18.075 29.9483C19.5675 29.9483 21.0453 29.6494 22.4241 29.0686C23.8029 28.4879 25.0558 27.6367 26.1111 26.5637C27.1664 25.4906 28.0035 24.2168 28.5746 22.8148C29.1458 21.4128 29.4397 19.9101 29.4397 18.3926ZM12.7587 17.4736H8.56079C8.72502 15.7275 9.35026 14.0589 10.3704 12.6443C11.3905 11.2298 12.7676 10.1218 14.3561 9.43752C14.5067 9.37319 14.6574 9.31269 14.808 9.25603C13.4801 11.7859 12.7768 14.6061 12.7587 17.4736ZM12.7587 19.3115C12.7773 22.1793 13.4814 24.9995 14.8102 27.5292C14.6566 27.4725 14.5052 27.412 14.3561 27.3477C12.7659 26.6659 11.3873 25.5586 10.3668 24.1435C9.34631 22.7285 8.72217 21.0586 8.56079 19.3115H12.7587ZM14.5662 17.4736C14.6062 16.3919 14.7294 15.315 14.9345 14.2528C15.1397 13.132 15.4773 12.0405 15.9399 11.002C16.5929 9.58914 17.4311 8.6748 18.075 8.6748C18.719 8.6748 19.5572 9.58914 20.2102 11.002C20.6724 12.0406 21.01 13.1321 21.2156 14.2528C21.4204 15.315 21.5435 16.3919 21.5839 17.4736H14.5662ZM21.5839 19.3115C21.5435 20.3933 21.4204 21.4701 21.2156 22.5324C21.0099 23.6531 20.6723 24.7445 20.2102 25.7832C19.5572 27.1983 18.719 28.1104 18.075 28.1104C17.4311 28.1104 16.5929 27.1983 15.9399 25.7832C15.4775 24.7446 15.1399 23.6532 14.9345 22.5324C14.7293 21.4702 14.6062 20.3933 14.5662 19.3115H21.5839ZM24.8328 11.5212C26.4074 13.117 27.3826 15.223 27.5893 17.4736H23.3914C23.3729 14.6058 22.6689 11.7856 21.3398 9.25603C21.4935 9.31269 21.6449 9.37396 21.794 9.43981C22.9301 9.92671 23.9622 10.6336 24.8328 11.5212ZM23.3914 19.3115H27.5893C27.4248 21.0576 26.7995 22.7261 25.7794 24.1406C24.7593 25.5552 23.3823 26.6632 21.794 27.3477C21.6434 27.4135 21.4927 27.4748 21.3421 27.5315C22.6708 25.001 23.3741 22.18 23.3914 19.3115Z" fill="#284CFF"/>
</svg>
