<svg width="44" height="41" viewBox="0 0 44 41" fill="none" xmlns="http://www.w3.org/2000/svg">
<path d="M43.2615 18.5282L36.593 11.8553V4.14683C36.593 2.75304 35.4643 1.62349 34.0695 1.62349C32.6778 1.62349 31.5491 2.75304 31.5491 4.14683V6.80794L26.5839 1.8392C24.1291 -0.615981 19.861 -0.611626 17.4117 1.84364L0.738207 18.5282C-0.246069 19.5152 -0.246069 21.112 0.738207 22.0974C1.72293 23.0841 3.32182 23.0841 4.30618 22.0974L20.9781 5.41237C21.5212 4.87173 22.4785 4.87173 23.0188 5.41077L39.6936 22.0974C40.188 22.5908 40.8326 22.8362 41.4771 22.8362C42.1229 22.8362 42.7686 22.5905 43.2615 22.0974C44.2462 21.1121 44.2462 19.5152 43.2615 18.5282Z" fill="#6DA7FF"/>
<path d="M22.8759 10.2022C22.3915 9.71775 21.6071 9.71775 21.1241 10.2022L6.45803 24.874C6.22649 25.1056 6.09521 25.4219 6.09521 25.7519V36.4529C6.09521 38.964 8.12985 40.9999 10.6391 40.9999H17.9003V29.747H26.0981V40.9999H33.3593C35.8685 40.9999 37.9032 38.964 37.9032 36.453V25.7519C37.9032 25.4219 37.773 25.1056 37.5403 24.874L22.8759 10.2022Z" fill="#6DA7FF"/>
</svg>
