<svg width="55" height="55" viewBox="0 0 55 55" fill="none" xmlns="http://www.w3.org/2000/svg">
<g clip-path="url(#clip0_2164_455)">
<path d="M46.75 0H8.25C3.69365 0 0 3.69365 0 8.25V46.75C0 51.3064 3.69365 55 8.25 55H46.75C51.3064 55 55 51.3064 55 46.75V8.25C55 3.69365 51.3064 0 46.75 0Z" fill="#F7DF1E"/>
<path d="M34.8047 39.7461C35.8789 41.5723 37.3828 42.8613 39.8535 42.8613C42.002 42.8613 43.3984 41.7871 43.3984 40.2832C43.3984 38.5645 42.002 37.9199 39.6387 36.8457L38.3496 36.3086C34.5898 34.6973 32.1191 32.7637 32.1191 28.5742C32.1191 24.707 35.0195 21.6992 39.6387 21.6992C42.9688 21.6992 45.332 22.8809 46.9434 25.8887L42.9688 28.4668C42.1094 26.8555 41.1426 26.2109 39.6387 26.2109C38.1348 26.2109 37.168 27.1777 37.168 28.4668C37.168 29.9707 38.1348 30.6152 40.3906 31.582L41.6797 32.1191C46.084 34.0527 48.5547 35.8789 48.5547 40.2832C48.5547 44.9023 44.9023 47.4805 39.9609 47.4805C35.127 47.4805 32.0117 45.2246 30.5078 42.2168L34.8047 39.7461ZM16.543 40.1758C17.4023 41.5723 18.0469 42.8613 19.873 42.8613C21.5918 42.8613 22.666 42.2168 22.666 39.6387V21.8066H27.8223V39.4238C27.8223 44.7949 24.707 47.1582 20.0879 47.1582C15.8984 47.1582 13.5352 45.0098 12.3535 42.4316L16.543 40.1758Z" fill="black"/>
</g>
<defs>
<clipPath id="clip0_2164_455">
<rect width="55" height="55" fill="white"/>
</clipPath>
</defs>
</svg>
