<svg width="55" height="55" viewBox="0 0 55 55" fill="none" xmlns="http://www.w3.org/2000/svg">
<g clip-path="url(#clip0_2132_357)">
<path d="M54.1366 12.4207C54.1564 12.4939 54.1667 12.5694 54.1667 12.6452V24.4303C54.1667 24.7381 54.002 25.0225 53.7349 25.1757L43.8435 30.8706V42.1583C43.8435 42.4655 43.6803 42.749 43.4139 42.9037L22.7665 54.7897C22.7192 54.8165 22.6677 54.8337 22.6161 54.852C22.5968 54.8584 22.5785 54.8702 22.5581 54.8756C22.4138 54.9136 22.2621 54.9136 22.1177 54.8756C22.0941 54.8692 22.0726 54.8563 22.0501 54.8477C22.0028 54.8305 21.9534 54.8155 21.9083 54.7897L1.26516 42.9037C0.998243 42.7504 0.833374 42.4661 0.833374 42.1583V6.80321C0.833374 6.72587 0.844115 6.65069 0.863449 6.57765C0.869893 6.55294 0.884931 6.53039 0.893524 6.50568C0.909635 6.46057 0.924672 6.41438 0.948303 6.37249C0.964414 6.34457 0.988044 6.32201 1.00738 6.29623C1.03208 6.26186 1.05464 6.22642 1.08364 6.19634C1.10834 6.17164 1.14057 6.15338 1.16849 6.1319C1.19964 6.10612 1.22757 6.07819 1.26301 6.05778H1.26409L11.5862 0.11479C11.8522 -0.0382635 12.1795 -0.0382635 12.4455 0.11479L22.7676 6.05778H22.7697C22.8041 6.07926 22.8331 6.10612 22.8642 6.13082C22.8922 6.1523 22.9233 6.17164 22.948 6.19527C22.9781 6.22642 22.9996 6.26186 23.0253 6.29623C23.0436 6.32201 23.0683 6.34457 23.0833 6.37249C23.108 6.41546 23.122 6.46057 23.1392 6.50568C23.1478 6.53039 23.1628 6.55294 23.1693 6.57872C23.189 6.65192 23.1992 6.72739 23.1993 6.80321V28.8856L31.8007 23.9329V12.6442C31.8007 12.569 31.8115 12.4927 31.8308 12.4207C31.8383 12.395 31.8523 12.3724 31.8609 12.3477C31.8781 12.3026 31.8931 12.2564 31.9167 12.2145C31.9329 12.1866 31.9565 12.164 31.9747 12.1383C32.0005 12.1039 32.022 12.0684 32.0521 12.0384C32.0768 12.0137 32.1079 11.9954 32.1359 11.9739C32.1681 11.9481 32.196 11.9202 32.2304 11.8998H32.2314L42.5546 5.95682C42.8205 5.80354 43.148 5.80354 43.4139 5.95682L53.736 11.8998C53.7725 11.9213 53.8004 11.9481 53.8327 11.9728C53.8595 11.9943 53.8907 12.0137 53.9154 12.0373C53.9454 12.0684 53.9669 12.1039 53.9927 12.1383C54.012 12.164 54.0357 12.1866 54.0507 12.2145C54.0754 12.2564 54.0894 12.3026 54.1066 12.3477C54.1162 12.3724 54.1302 12.395 54.1366 12.4207ZM52.446 23.9329V14.1329L48.8338 16.2123L43.8435 19.0855V28.8856L52.4471 23.9329H52.446ZM42.1239 41.661V31.8544L37.2153 34.6578L23.1983 42.6577V52.5566L42.1239 41.661ZM2.55408 8.29084V41.661L21.4776 52.5555V42.6588L11.5916 37.0638L11.5883 37.0617L11.584 37.0595C11.5507 37.0402 11.5228 37.0123 11.4917 36.9886C11.4648 36.9671 11.4337 36.95 11.41 36.9263L11.4079 36.9231C11.38 36.8963 11.3606 36.863 11.337 36.8329C11.3155 36.8039 11.2897 36.7792 11.2725 36.7491L11.2715 36.7459C11.2521 36.7137 11.2403 36.675 11.2264 36.6385C11.2124 36.6062 11.1941 36.5762 11.1855 36.5418V36.5407C11.1748 36.4999 11.1727 36.4569 11.1684 36.4151C11.1641 36.3828 11.1555 36.3506 11.1555 36.3184V36.3162V13.2435L6.16628 10.3692L2.55408 8.29191V8.29084ZM12.0169 1.85268L3.41658 6.80321L12.0147 11.7537L20.614 6.80213L12.0147 1.85268H12.0169ZM16.4894 32.7481L21.4786 29.8759V8.29084L17.8664 10.3703L12.8762 13.2435V34.8286L16.4894 32.7481ZM42.9843 7.69471L34.385 12.6452L42.9843 17.5958L51.5824 12.6442L42.9843 7.69471ZM42.1239 19.0855L37.1336 16.2123L33.5214 14.1329V23.9329L38.5106 26.8051L42.1239 28.8856V19.0855ZM22.3368 41.1701L34.95 33.9693L41.255 30.3711L32.6622 25.4238L22.7686 31.1197L13.7516 36.3109L22.3368 41.1701Z" fill="#FF2D20"/>
</g>
<defs>
<clipPath id="clip0_2132_357">
<rect width="55" height="55" fill="white"/>
</clipPath>
</defs>
</svg>
