<svg width="37" height="37" viewBox="0 0 37 37" fill="none" xmlns="http://www.w3.org/2000/svg">
<path d="M26.5003 0H10.3697C4.60875 0 0 4.60875 0 10.3697V26.5003C0 32.2612 4.60875 36.87 10.3697 36.87H26.5003C32.2612 36.87 36.87 32.2612 36.87 26.5003V10.3697C36.87 4.60875 32.2612 0 26.5003 0Z" fill="#284CFF"/>
<path d="M13.8262 28.8045C13.8262 29.4958 13.3653 29.9567 12.674 29.9567H8.06527C7.37396 29.9567 6.91309 29.4958 6.91309 28.8045V14.9782C6.91309 14.2869 7.37396 13.8261 8.06527 13.8261H12.674C13.3653 13.8261 13.8262 14.2869 13.8262 14.9782V28.8045ZM10.3696 12.6739C8.41093 12.6739 6.91309 11.176 6.91309 9.2173C6.91309 7.25859 8.41093 5.76074 10.3696 5.76074C12.3284 5.76074 13.8262 7.25859 13.8262 9.2173C13.8262 11.176 12.3284 12.6739 10.3696 12.6739ZM29.9568 28.8045C29.9568 29.4958 29.496 29.9567 28.8046 29.9567H25.3481C24.6568 29.9567 24.1959 29.4958 24.1959 28.8045V24.7718V23.6196V21.3153C24.1959 20.3935 23.3894 19.587 22.4676 19.587C21.5459 19.587 20.7393 20.3935 20.7393 21.3153V23.6196V24.7718V28.8045C20.7393 29.4958 20.2785 29.9567 19.5871 29.9567H16.1306C15.4393 29.9567 14.9784 29.4958 14.9784 28.8045V14.9782C14.9784 14.2869 15.4393 13.8261 16.1306 13.8261H20.7393C21.085 13.8261 21.3154 13.9413 21.5459 14.1717C22.2372 13.9413 22.9285 13.8261 23.6198 13.8261C27.0764 13.8261 29.9568 16.7065 29.9568 20.1631V28.8045Z" fill="#010018" fill-opacity="0.99"/>
</svg>
