<svg width="57" height="55" viewBox="0 0 57 55" fill="none" xmlns="http://www.w3.org/2000/svg">
<g clip-path="url(#clip0_2132_366)">
<path d="M14.2899 44.4197H12.1416C12.0656 40.7936 11.8564 37.3846 11.5143 34.1902H11.4952L8.22445 44.4197H6.58886L3.33759 34.1902H3.31891C3.07772 37.2572 2.92579 40.667 2.86269 44.4197H0.904541C1.03074 39.8563 1.3479 35.578 1.85476 31.5845H4.51738L7.61629 41.0157H7.63539L10.7534 31.5845H13.301C13.859 36.2621 14.1886 40.5408 14.2899 44.4197ZM23.6065 34.9499C22.7318 39.6964 21.5778 43.1453 20.1456 45.2981C19.0298 46.9553 17.8072 47.7848 16.4759 47.7848C16.121 47.7848 15.683 47.6776 15.1641 47.4651V46.3206C15.4178 46.3571 15.7154 46.3779 16.0575 46.3779C16.6793 46.3779 17.1791 46.2069 17.5602 45.864C18.016 45.4463 18.2439 44.9768 18.2439 44.4575C18.2439 44.1013 18.0663 43.3732 17.7117 42.2706L15.3542 34.9495H17.4647L19.1568 40.425C19.537 41.6683 19.6956 42.5363 19.6321 43.0307C20.5574 40.5595 21.2038 37.8649 21.572 34.9491H23.6065V34.9499Z" fill="#5D87A1"/>
<path d="M52.2024 44.4198H46.1001V31.5845H48.1529V42.8398H52.2024V44.4198ZM44.5027 44.7299L42.1431 43.5655C42.3523 43.3936 42.5524 43.2076 42.7326 42.9922C43.7355 41.814 44.2358 40.0718 44.2358 37.7641C44.2358 33.5178 42.5694 31.3936 39.2356 31.3936C37.6008 31.3936 36.3255 31.9324 35.4135 33.0105C34.4114 34.1894 33.9112 35.9255 33.9112 38.2207C33.9112 40.4769 34.3545 42.132 35.2416 43.1819C36.0532 44.1329 37.2766 44.6091 38.9126 44.6091C39.5228 44.6091 40.0828 44.5344 40.593 44.3837L43.665 46.172L44.5027 44.7299ZM36.859 41.8514C36.3392 41.0153 36.0794 39.6728 36.0794 37.8218C36.0794 34.59 37.0611 32.9723 39.0268 32.9723C40.0542 32.9723 40.8072 33.3592 41.2888 34.1313C41.8077 34.9686 42.0688 36.2991 42.0688 38.1244C42.0688 41.3827 41.0862 43.0121 39.1218 43.0121C38.094 43.0125 37.3409 42.6269 36.859 41.8514ZM33.0166 40.8622C33.0166 41.9506 32.6172 42.8436 31.8194 43.543C31.0206 44.2396 29.9496 44.5887 28.6075 44.5887C27.3522 44.5887 26.135 44.1877 24.9569 43.3899L25.5086 42.2877C26.5223 42.7954 27.4402 43.0478 28.2642 43.0478C29.0376 43.0478 29.642 42.8763 30.0804 42.5364C30.5183 42.1951 30.7795 41.7165 30.7795 41.1112C30.7795 40.3486 30.2477 39.6969 29.2721 39.151C28.3726 38.657 26.5734 37.6242 26.5734 37.6242C25.5983 36.9135 25.1101 36.1505 25.1101 34.8935C25.1101 33.8532 25.4742 33.0134 26.2027 32.3745C26.9321 31.7331 27.8732 31.4135 29.0268 31.4135C30.2182 31.4135 31.3013 31.7327 32.2768 32.3645L31.782 33.4671C30.9476 33.1126 30.124 32.9353 29.3116 32.9353C28.6536 32.9353 28.1455 33.0935 27.7922 33.4111C27.436 33.7274 27.2164 34.1321 27.2164 34.6286C27.2164 35.3875 27.7594 36.0475 28.7615 36.6042C29.6732 37.099 31.5171 38.1497 31.5171 38.1497C32.5172 38.8592 33.0166 39.6151 33.0166 40.8622Z" fill="#F8981D"/>
<path d="M54.7795 27.2852C53.5383 27.2537 52.5773 27.3786 51.7707 27.7199C51.5378 27.8128 51.1675 27.8128 51.1351 28.1072C51.2609 28.2317 51.2754 28.4326 51.3846 28.6045C51.5706 28.9146 51.8948 29.3318 52.1908 29.5493C52.5158 29.7984 52.8421 30.045 53.1842 30.2621C53.7874 30.6353 54.4711 30.8524 55.0589 31.2243C55.4014 31.4406 55.7418 31.7204 56.0847 31.9533C56.2532 32.0774 56.3611 32.2788 56.5799 32.3564V32.3091C56.4703 32.1696 56.4392 31.9678 56.3317 31.8126L55.8659 31.3634C55.4159 30.759 54.8567 30.2314 54.2535 29.798C53.7571 29.4559 52.6711 28.991 52.4698 28.4189L52.4382 28.3874C52.7794 28.3554 53.1842 28.2317 53.5084 28.1366C54.036 27.9976 54.5171 28.0291 55.0585 27.8901C55.3075 27.8278 55.5546 27.7497 55.8045 27.6729V27.533C55.5238 27.2537 55.3237 26.8825 55.0286 26.6185C54.239 25.9365 53.3689 25.2694 52.4698 24.711C51.9882 24.4001 51.3688 24.2 50.8562 23.9356C50.6714 23.8422 50.3601 23.7961 50.2513 23.6408C49.9732 23.2996 49.8167 22.8504 49.6149 22.4465C49.1666 21.5943 48.7311 20.6486 48.3442 19.7474C48.0644 19.1429 47.8942 18.5393 47.553 17.9802C45.9548 15.3441 44.2191 13.7476 41.5515 12.1805C40.9782 11.8542 40.2962 11.7151 39.5676 11.5441L38.404 11.4826C38.1558 11.3739 37.9071 11.0787 37.6905 10.9392C36.8054 10.3813 34.5268 9.17204 33.8759 10.7686C33.4566 11.7778 34.4961 12.7699 34.8531 13.2818C35.1167 13.6371 35.4583 14.0415 35.6426 14.445C35.7518 14.7086 35.7825 14.9884 35.8917 15.2669C36.14 15.9494 36.372 16.7086 36.6983 17.3454C36.8685 17.6701 37.0541 18.0113 37.2716 18.3052C37.3961 18.4771 37.6128 18.553 37.6601 18.8333C37.4439 19.1421 37.4268 19.6083 37.3027 19.996C36.7448 21.7483 36.9627 23.919 37.7535 25.2067C38.001 25.5944 38.5913 26.4479 39.3808 26.1208C40.0799 25.8418 39.9251 24.958 40.126 24.183C40.1721 23.9958 40.1418 23.8729 40.2348 23.75V23.7803C40.451 24.2141 40.6694 24.6321 40.8699 25.0672C41.351 25.8265 42.1888 26.6177 42.8866 27.1437C43.2581 27.4243 43.5524 27.9042 44.0178 28.0756V28.0291H43.9871C43.8928 27.8901 43.755 27.8278 43.6313 27.7199C43.3515 27.4405 43.0418 27.0992 42.8247 26.7896C42.1746 25.9207 41.5993 24.9589 41.0887 23.9663C40.8388 23.4847 40.6233 22.9584 40.422 22.4776C40.3282 22.2921 40.3282 22.0123 40.1725 21.9189C39.9392 22.2597 39.5992 22.5549 39.429 22.9725C39.1338 23.6404 39.1031 24.4619 38.9935 25.3163L38.9325 25.3462C38.4385 25.222 38.2666 24.711 38.079 24.2772C37.6145 23.1755 37.5364 21.407 37.9395 20.1359C38.0475 19.8109 38.5145 18.7872 38.3281 18.4775C38.2347 18.1807 37.9242 18.0117 37.754 17.778C37.5539 17.4841 37.3347 17.1121 37.1952 16.7859C36.8233 15.9178 36.636 14.956 36.2354 14.0884C36.0482 13.684 35.7232 13.2656 35.46 12.8932C35.1644 12.4748 34.8394 12.18 34.6056 11.684C34.5284 11.5133 34.4201 11.2344 34.5442 11.0488C34.5745 10.9243 34.6376 10.8778 34.7613 10.8467C34.9622 10.6769 35.5364 10.8927 35.7377 10.9861C36.3126 11.2186 36.7934 11.4357 37.2732 11.7612C37.4904 11.9168 37.7232 12.2116 38.0018 12.2892H38.3281C38.8233 12.3971 39.3817 12.3191 39.8479 12.4594C40.6694 12.7234 41.4137 13.1107 42.0812 13.5288C44.1124 14.8169 45.7875 16.6472 46.9183 18.8333C47.1038 19.1894 47.1827 19.5157 47.3521 19.8873C47.6788 20.6478 48.0827 21.4232 48.4069 22.1675C48.7328 22.8961 49.0433 23.64 49.5087 24.2453C49.7407 24.5707 50.6731 24.7413 51.0911 24.9119C51.4004 25.051 51.8819 25.1747 52.1609 25.3453C52.6885 25.6704 53.2141 26.0436 53.7102 26.401C53.9572 26.587 54.7334 26.9747 54.7795 27.2852ZM38.9607 13.8086C38.7466 13.8064 38.5332 13.8326 38.326 13.8866V13.9178H38.3559C38.4808 14.1656 38.698 14.3374 38.8528 14.5537C38.9778 14.8024 39.0861 15.049 39.2086 15.2972L39.2385 15.2665C39.4572 15.1117 39.566 14.8634 39.566 14.491C39.4718 14.3814 39.4572 14.2743 39.3788 14.1656C39.2874 14.0103 39.0861 13.9331 38.9607 13.8086Z" fill="#5D87A1"/>
<path d="M56.2566 44.4176H56.5779V42.8451H56.0959L55.7028 43.9182L55.2757 42.8451H54.8115V44.4176H55.115V43.2212H55.132L55.5795 44.4176H55.8107L56.2566 43.2212V44.4176ZM53.6683 44.4176H54.0083V43.1117H54.4533V42.8447H53.2046V43.1117H53.6675L53.6683 44.4176Z" fill="#F8981D"/>
</g>
<defs>
<clipPath id="clip0_2132_366">
<rect width="57" height="55" fill="white"/>
</clipPath>
</defs>
</svg>
