<svg width="87" height="55" viewBox="0 0 87 55" fill="none" xmlns="http://www.w3.org/2000/svg">
<g clip-path="url(#clip0_2132_293)">
<path d="M38.9155 40.8871C39.1576 44.0759 39.1105 47.2799 38.775 50.4602C38.7608 50.9072 38.6295 51.3426 38.3941 51.7228C38.1586 52.103 37.8274 52.4147 37.4336 52.6266C34.8944 54.5119 26.3847 54.9641 25.3244 50.9582C24.9333 50.943 25.245 49.6474 24.8722 49.6963C24.1279 49.6352 23.4083 49.4001 22.7714 49.01C22.1346 48.6199 21.5982 48.0857 21.2055 47.4505C21.2208 43.0688 21.7036 27.2624 13.8722 31.5188C12.1704 32.4673 10.8941 34.0287 10.3033 35.8852C9.77561 37.5048 9.52762 39.2025 9.56996 40.9055C9.50885 43.0871 10.0527 45.4735 10.1322 48.0921C10.1627 49.2624 10.3491 49.5588 9.47829 50.5549C8.07579 52.1591 5.62829 50.8055 4.30523 49.0424C3.7457 48.1544 3.43834 47.1309 3.41607 46.0816C2.3638 34.6358 3.39912 23.094 6.47162 12.0182C7.59301 8.25991 7.98412 7.71602 11.553 6.87269C15.6139 5.97949 19.7901 5.73201 23.928 6.13936C27.1394 5.09436 34.76 -0.56453 38.0477 3.92714C43.0364 2.81954 48.1962 2.72206 53.2231 3.64043C58.25 4.55879 63.0422 6.47443 67.3169 9.27436C71.6467 9.60207 75.9917 9.68063 80.3305 9.50964C80.9416 9.11853 81.6566 8.69992 82.28 8.33936C82.7374 8.02952 83.2513 7.81254 83.7925 7.70075C84.4952 7.59075 85.4119 7.56019 85.6258 8.43408C85.8119 9.33089 85.8746 10.2489 85.8122 11.1627C85.791 11.7136 85.586 12.2415 85.2299 12.6623C84.8739 13.0832 84.3872 13.3728 83.8475 13.4849C82.6277 13.2847 81.4451 12.9015 80.3397 12.3483C76.3675 12.4583 73.923 12.2382 69.9508 12.3483C70.5894 13.0327 70.5619 13.4849 71.0264 14.3894C72.168 17.3938 72.5492 20.6339 72.136 23.8213C71.7229 27.0086 70.5282 30.0444 68.6583 32.6585C68.3772 37.2113 68.7194 41.8099 68.753 46.378C68.7683 47.9516 68.8783 49.4488 67.3963 50.4938C66.0893 51.2774 64.62 51.751 63.1014 51.8781C61.5828 52.0052 60.0552 51.7825 58.6361 51.2271C57.8625 50.7832 57.1719 50.2083 56.595 49.5282C56.0876 49.5839 55.5763 49.5941 55.0672 49.5588C54.2015 49.3167 53.4533 48.7684 52.9619 48.0158C52.6802 47.501 52.4401 46.9646 52.2438 46.4116C52.2438 44.2727 52.1644 43.4355 52.1644 41.2996C47.7593 42.0881 43.2389 41.9612 38.885 40.9269L38.9155 40.8871Z" fill="#CCCCCC"/>
<path d="M31.6096 54.5083C30.3476 54.5271 29.0911 54.3372 27.891 53.9461C27.2248 53.7672 26.6095 53.4355 26.0939 52.9772C25.5784 52.5189 25.1768 51.9467 24.921 51.3061C24.6983 51.0286 24.5891 50.677 24.6155 50.3222V50.1847C23.8388 50.0683 23.0961 49.7869 22.4373 49.3595C21.7785 48.932 21.2188 48.3685 20.796 47.7067L20.7227 47.5875V46.793C20.7502 43.1814 20.8205 33.5839 17.5632 31.6314C17.015 31.365 16.4047 31.2527 15.7976 31.3066C15.1904 31.3604 14.6094 31.5783 14.1166 31.9369C12.5111 32.8315 11.3086 34.3062 10.7555 36.0589C10.2517 37.6255 10.0162 39.266 10.0588 40.9111C10.0589 42.1379 10.1457 43.3632 10.3185 44.5778C10.4499 45.6961 10.5844 46.8572 10.6241 48.0764C10.6241 48.2567 10.6241 48.4125 10.6455 48.553C10.715 48.9756 10.6789 49.4088 10.5402 49.8141C10.4016 50.2193 10.1648 50.5838 9.85102 50.8753C9.60284 51.1684 9.29039 51.4003 8.93796 51.5529C8.58553 51.7055 8.20264 51.7748 7.81908 51.7553C7.03607 51.6471 6.28447 51.3758 5.61287 50.9589C4.94127 50.5421 4.36462 49.9889 3.92019 49.3353C3.29353 48.3779 2.95227 47.2619 2.9363 46.1178C1.87049 34.6119 2.91427 23.0082 6.0163 11.8772C7.16213 8.0425 7.6663 7.29388 11.4521 6.39861C15.5308 5.50096 19.7248 5.24632 23.8821 5.64388C24.796 5.28803 25.6887 4.87994 26.5557 4.42166C30.3202 2.53944 35.4474 -0.0180608 38.2616 3.40111C43.2494 2.32477 48.4011 2.24801 53.4187 3.17528C58.4364 4.10256 63.2204 6.01545 67.4941 8.80333C71.7244 9.1214 75.9695 9.19485 80.2082 9.02333C80.8194 8.6475 81.4671 8.25638 82.0599 7.91416L82.231 7.81638C82.6892 7.51555 83.2021 7.3079 83.7405 7.20527C85.0971 6.99444 85.8794 7.36722 86.1146 8.30833C86.3106 9.25129 86.3774 10.2165 86.3132 11.1775C86.2826 11.8452 86.0271 12.4829 85.5884 12.9871C85.1496 13.4913 84.5533 13.8324 83.8963 13.955H83.8169L83.7405 13.9336C83.4807 13.8664 83.218 13.8053 82.946 13.7442C81.9926 13.581 81.0695 13.274 80.2082 12.8336C78.2741 12.8825 76.6791 12.855 75.1391 12.8336C73.816 12.8122 72.4563 12.7878 70.8796 12.8122C70.9774 13.0047 71.0477 13.1911 71.1241 13.3805C71.2233 13.6475 71.3375 13.9087 71.4663 14.1628C72.6517 17.2327 73.0597 20.5481 72.654 23.8139C72.2483 27.0797 71.0415 30.1945 69.141 32.8811C68.9699 35.8328 69.0585 38.8608 69.141 41.7911C69.1869 43.2914 69.2327 44.8467 69.2419 46.3744V46.6372C69.389 47.4221 69.321 48.2322 69.045 48.9816C68.7691 49.7309 68.2954 50.3916 67.6744 50.8936C66.3018 51.7293 64.754 52.2351 63.1528 52.3714C61.5516 52.5076 59.9407 52.2706 58.4466 51.6789C57.7888 51.3532 57.2028 50.8992 56.7232 50.3436C56.6163 50.2336 56.5094 50.1236 56.3994 50.0197C56.2496 50.0197 56.0938 50.0381 55.9563 50.0533C55.6217 50.106 55.2804 50.0998 54.948 50.035C53.9652 49.763 53.1148 49.1429 52.5555 48.2903C52.3404 47.9434 52.1652 47.5734 52.033 47.1872C51.9627 47.0008 51.8894 46.8114 51.8007 46.6128L51.758 46.5181V46.4142C51.758 45.3539 51.7396 44.5992 51.7182 43.8719C51.703 43.2608 51.6877 42.6497 51.6816 41.8583C47.6255 42.5256 43.4805 42.4303 39.4594 41.5772C39.643 44.5628 39.5766 47.5585 39.2607 50.5331C39.2378 51.0427 39.0855 51.5382 38.8182 51.9728C38.5509 52.4074 38.1775 52.7668 37.733 53.0172C35.8715 54.0771 33.75 54.5938 31.6096 54.5083ZM25.5932 50.4811H25.7032L25.7949 50.8294C25.9797 51.3695 26.2983 51.8539 26.7209 52.2375C27.1436 52.6212 27.6565 52.8915 28.2119 53.0233C31.178 53.9276 34.3794 53.6438 37.1402 52.2319C37.4795 52.059 37.7654 51.7971 37.9673 51.4741C38.1691 51.1512 38.2793 50.7794 38.286 50.3986C38.6054 47.3781 38.6616 44.3355 38.4541 41.3053L38.1944 41.2319L39.2638 39.1114L39.3891 40.5261C43.5763 41.452 47.9051 41.5434 52.1277 40.795L52.6807 40.7217V41.2778C52.6807 42.3381 52.6991 43.0928 52.7205 43.82C52.7419 44.5472 52.7571 45.2653 52.7602 46.2858C52.8366 46.4661 52.9038 46.6403 52.971 46.8083C53.0789 47.1284 53.2213 47.4357 53.3957 47.725C53.8237 48.3805 54.4752 48.8583 55.2291 49.0694C55.4479 49.1022 55.6703 49.1022 55.8891 49.0694C56.1365 49.0401 56.3855 49.0268 56.6346 49.0297H56.818L56.9524 49.155C57.1174 49.3078 57.2824 49.4758 57.4474 49.6439C57.8396 50.1036 58.3169 50.4833 58.853 50.7622C60.1953 51.2859 61.6394 51.4965 63.0754 51.3779C64.5114 51.2593 65.9014 50.8146 67.1396 50.0778C68.3252 49.2406 68.3099 48.0917 68.2916 46.6342V46.3683C68.2916 44.8405 68.2366 43.3128 68.1907 41.8094C68.1021 38.7936 68.0105 35.6739 68.1907 32.6153V32.4136L68.3435 32.2792C70.1448 29.7458 71.2933 26.8072 71.6872 23.7239C72.0811 20.6405 71.7082 17.5076 70.6016 14.6028C70.4567 14.318 70.3282 14.0252 70.2166 13.7258C70.0936 13.3325 69.8849 12.9714 69.6055 12.6686L68.8691 11.8772L69.9477 11.8467C71.946 11.7917 73.5777 11.8192 75.1605 11.8467C76.7432 11.8742 78.3535 11.9017 80.3274 11.8467H80.471L80.5932 11.9231C81.3898 12.3547 82.2517 12.653 83.1446 12.8061C83.3952 12.8642 83.6427 12.9192 83.8841 12.9803C84.2859 12.8553 84.6396 12.6097 84.8971 12.2768C85.1546 11.9439 85.3033 11.5398 85.3232 11.1194C85.3816 10.2527 85.3219 9.38207 85.146 8.53138C85.1032 8.34499 85.0207 7.99361 83.8749 8.17388C83.4559 8.25627 83.0572 8.42031 82.7016 8.65666L82.5305 8.75444C81.9194 9.10277 81.2196 9.5275 80.6024 9.9125L80.4894 9.98277H80.358C75.9999 10.1612 71.6351 10.0827 67.2863 9.74749H67.158L67.051 9.67416C62.83 6.90644 58.0966 5.01386 53.131 4.10849C48.1654 3.20312 43.0686 3.30338 38.1424 4.40333L37.8369 4.45833L37.6566 4.21388C35.3741 1.09722 30.5249 3.52027 26.9835 5.28944C26.046 5.79094 25.0763 6.22986 24.0807 6.60333L23.983 6.63388H23.8821C19.7955 6.23072 15.6708 6.47407 11.6599 7.35499C8.23463 8.16166 7.99325 8.57722 6.93297 12.1644C3.86079 23.1797 2.8253 34.6633 3.87741 46.0505C3.88396 47.0067 4.15696 47.9421 4.66575 48.7517C5.02545 49.288 5.49098 49.7452 6.03376 50.0952C6.57654 50.4451 7.18512 50.6804 7.82213 50.7867C8.06059 50.8005 8.29897 50.7582 8.51813 50.6632C8.7373 50.5682 8.93113 50.4232 9.08408 50.2397C9.31391 50.0434 9.48679 49.789 9.58462 49.5031C9.68245 49.2171 9.70164 48.9101 9.64019 48.6142C9.64019 48.4644 9.62186 48.3086 9.6188 48.1131C9.58519 46.9336 9.45075 45.7969 9.31324 44.6969C9.13453 43.4388 9.04569 42.1696 9.04741 40.8989C9.00272 39.1362 9.26217 37.379 9.81436 35.7044C10.4497 33.7441 11.8033 32.0969 13.6032 31.0936C14.2411 30.6455 14.9892 30.3802 15.7668 30.3264C16.5444 30.2725 17.322 30.4322 18.0155 30.7881C21.7524 33.0278 21.6821 42.6742 21.6516 46.793V47.3033C22.0013 47.8334 22.4646 48.279 23.0079 48.6077C23.5512 48.9364 24.1609 49.1401 24.7927 49.2039C24.8744 49.1948 24.9571 49.2023 25.0359 49.2259C25.1146 49.2495 25.1878 49.2888 25.251 49.3414C25.3616 49.4654 25.4457 49.6106 25.4982 49.7682C25.5508 49.9258 25.5706 50.0925 25.5566 50.258C25.5841 50.3283 25.5871 50.4169 25.5932 50.4811Z" fill="#CCCCCC"/>
<path d="M37.0976 39.6645C37.3397 42.8532 37.2927 46.0573 36.9571 49.2375C36.943 49.6845 36.8116 50.1199 36.5762 50.5002C36.3408 50.8804 36.0095 51.1921 35.6157 51.4039C33.0765 53.2892 24.5668 53.7414 23.5065 49.7356C23.1154 49.7203 23.4271 48.4248 23.0543 48.4736C22.31 48.4125 21.5904 48.1774 20.9536 47.7873C20.3167 47.3973 19.7803 46.8631 19.3876 46.2278C19.4029 41.8461 19.8857 26.0398 12.0543 30.2961C10.3525 31.2446 9.07626 32.8061 8.48542 34.6625C7.95774 36.2822 7.70975 37.9799 7.75209 39.6828C7.69098 41.8645 8.23486 44.2509 8.31431 46.8695C8.34486 48.0398 8.53125 48.3361 7.66042 49.3323C6.25792 50.9364 3.81042 49.5828 2.48736 47.8198C1.92783 46.9318 1.62047 45.9083 1.5982 44.8589C0.545933 33.4131 1.58125 21.8714 4.65375 10.7956C5.77514 7.03726 6.16625 6.49337 9.73514 5.65004C13.796 4.75683 17.9722 4.50935 22.1101 4.9167C25.3215 3.8717 32.9421 -1.78719 36.2299 2.70448C41.2185 1.59688 46.3784 1.4994 51.4053 2.41777C56.4322 3.33614 61.2243 5.25177 65.499 8.0517C69.8288 8.37941 74.1738 8.45797 78.5126 8.28698C79.1237 7.89587 79.8388 7.47726 80.4621 7.1167C80.9196 6.80686 81.4335 6.58988 81.9746 6.47809C82.6774 6.36809 83.594 6.33753 83.8079 7.21142C83.994 8.10823 84.0567 9.02626 83.9943 9.94004C83.9731 10.4909 83.7681 11.0188 83.4121 11.4397C83.056 11.8605 82.5693 12.1501 82.0296 12.2623C80.8098 12.062 79.6272 11.6788 78.5218 11.1256C74.5496 11.2356 72.1051 11.0156 68.1329 11.1256C68.7715 11.81 68.744 12.2623 69.2085 13.1667C70.3501 16.1711 70.7313 19.4112 70.3182 22.5986C69.905 25.786 68.7103 28.8218 66.8404 31.4359C66.5593 35.9886 66.9015 40.5873 66.9351 45.1553C66.9504 46.7289 67.0604 48.2261 65.5785 49.2711C64.2714 50.0547 62.8022 50.5283 61.2835 50.6554C59.7649 50.7826 58.2373 50.5599 56.8182 50.0045C56.0447 49.5605 55.3541 48.9857 54.7771 48.3056C54.2697 48.3612 53.7585 48.3714 53.2493 48.3361C52.3837 48.0941 51.6355 47.5457 51.144 46.7931C50.8623 46.2783 50.6222 45.7419 50.426 45.1889C50.426 43.05 50.3465 42.2128 50.3465 40.077C45.9414 40.8654 41.4211 40.7385 37.0671 39.7042L37.0976 39.6645Z" fill="#373435"/>
<path d="M29.7917 53.2865C28.5297 53.3053 27.2732 53.1154 26.0731 52.7243C25.4069 52.5454 24.7916 52.2137 24.276 51.7554C23.7605 51.2971 23.3589 50.725 23.1031 50.0843C22.8804 49.8069 22.7712 49.4552 22.7976 49.1004V48.9629C22.0209 48.8465 21.2782 48.5651 20.6194 48.1377C19.9606 47.7102 19.4009 47.1467 18.9781 46.4849L18.9048 46.3657V45.5713C18.9323 41.9596 19.0026 32.3621 15.7453 30.4096C15.1971 30.1432 14.5868 30.031 13.9797 30.0848C13.3725 30.1386 12.7915 30.3565 12.2987 30.7152C10.6932 31.6097 9.4907 33.0844 8.93757 34.8371C8.43382 36.4037 8.19828 38.0442 8.2409 39.6893C8.24099 40.9161 8.32778 42.1414 8.50062 43.356C8.63201 44.4774 8.76645 45.6354 8.80618 46.8577C8.80618 47.0379 8.80618 47.1938 8.82757 47.3343C8.89712 47.7569 8.86097 48.1901 8.72235 48.5953C8.58372 49.0005 8.34694 49.3651 8.03312 49.6565C7.78509 49.9498 7.47266 50.1818 7.1202 50.3345C6.76773 50.4871 6.38477 50.5563 6.00118 50.5365C5.21816 50.4284 4.46657 50.1571 3.79497 49.7402C3.12337 49.3234 2.54672 48.7702 2.10229 48.1165C1.47578 47.1591 1.13454 46.0432 1.1184 44.899C0.0522118 33.3922 1.09599 21.7873 4.1984 10.6554C5.34423 6.8207 5.8484 6.07209 9.63423 5.17682C13.7129 4.27907 17.9069 4.02442 22.0642 4.42209C22.9781 4.06623 23.8708 3.65815 24.7378 3.19987C28.5023 1.31765 33.6295 -1.24291 36.4437 2.17931C41.4317 1.10359 46.5835 1.02742 51.6011 1.95521C56.6187 2.883 61.4026 4.79635 65.6762 7.58459C69.9013 7.90423 74.1413 7.97972 78.3751 7.8107C78.9709 7.44098 79.637 7.0407 80.2267 6.70154L80.3978 6.60376C80.856 6.30293 81.3689 6.09527 81.9073 5.99265C83.264 5.78182 84.0462 6.15459 84.2815 7.0957C84.4774 8.03866 84.5443 9.0039 84.4801 9.96487C84.4494 10.6325 84.1939 11.2702 83.7552 11.7744C83.3164 12.2786 82.7201 12.6197 82.0631 12.7424H81.9837L81.9073 12.721C81.6476 12.6538 81.3848 12.5926 81.1128 12.5315C80.1664 12.3643 79.2507 12.0553 78.3965 11.6149C76.4623 11.6638 74.8673 11.6363 73.3273 11.6149C72.0042 11.5935 70.6445 11.569 69.0678 11.5935C69.1656 11.786 69.2359 11.9724 69.3123 12.1618C69.4115 12.4288 69.5257 12.69 69.6545 12.944C70.8396 16.0141 71.2475 19.3294 70.8418 22.5951C70.4361 25.8608 69.2295 28.9756 67.3292 31.6624C67.1581 34.614 67.2467 37.6421 67.3292 40.5693C67.372 42.0727 67.4178 43.6249 67.4301 45.1527V45.4154C67.5776 46.2 67.51 47.0099 67.2346 47.7593C66.9592 48.5086 66.4861 49.1695 65.8656 49.6718C64.493 50.5075 62.9453 51.0133 61.3441 51.1496C59.7429 51.2859 58.1319 51.0488 56.6378 50.4571C55.9801 50.1315 55.3941 49.6774 54.9145 49.1218C54.8076 49.0118 54.7006 48.9018 54.5906 48.7979C54.4409 48.7979 54.2851 48.8163 54.1476 48.8315C53.813 48.8843 53.4717 48.8781 53.1392 48.8132C52.1564 48.5413 51.3061 47.9211 50.7467 47.0685C50.5315 46.7217 50.3562 46.3517 50.2242 45.9654C50.154 45.779 50.0806 45.5896 49.992 45.391L49.9492 45.2963V45.1924C49.9492 44.1321 49.9309 43.3774 49.9095 42.6502C49.8942 42.039 49.8759 41.4279 49.8728 40.6365C45.8167 41.3037 41.6718 41.2083 37.6506 40.3554C37.8266 43.3386 37.753 46.3312 37.4306 49.3021C37.4076 49.8118 37.2554 50.3072 36.9881 50.7418C36.7208 51.1764 36.3473 51.5358 35.9028 51.7863C34.0459 52.8472 31.9289 53.3669 29.7917 53.2865ZM23.7753 49.2593H23.8853L23.977 49.6077C24.1618 50.1477 24.4804 50.6321 24.903 51.0158C25.3257 51.3994 25.8386 51.6697 26.394 51.8015C29.36 52.7061 32.5616 52.4223 35.3223 51.0102C35.6616 50.8372 35.9475 50.5753 36.1494 50.2523C36.3512 49.9294 36.4614 49.5576 36.4681 49.1768C36.7874 46.1563 36.8436 43.1137 36.6362 40.0835L36.3765 40.0102L37.4306 37.9049L37.5559 39.3196C41.7432 40.2454 46.0719 40.3368 50.2945 39.5885L50.8476 39.5151V40.0713C50.8476 41.1315 50.8659 41.8863 50.8873 42.6135C50.9087 43.3407 50.924 44.0588 50.927 45.0793C51.0034 45.2596 51.0706 45.4338 51.1378 45.6049C51.2455 45.925 51.388 46.2324 51.5626 46.5215C51.9905 47.1771 52.642 47.6548 53.3959 47.866C53.6147 47.8991 53.8371 47.8991 54.0559 47.866C54.3033 47.8367 54.5523 47.8234 54.8015 47.8263H54.9848L55.1192 47.9515C55.2842 48.1043 55.4492 48.2571 55.6142 48.4404C56.0065 48.9001 56.4838 49.2798 57.0198 49.5588C58.3621 50.0825 59.8062 50.293 61.2422 50.1744C62.6782 50.0558 64.0682 49.6112 65.3064 48.8743C66.492 48.0371 66.4767 46.8882 66.4584 45.4307V45.1649C66.4584 43.6371 66.4034 42.1093 66.3576 40.6029C66.269 37.5871 66.1773 34.4704 66.3576 31.4118V31.2102L66.5103 31.0757C68.3114 28.5423 69.4597 25.6037 69.8536 22.5204C70.2475 19.437 69.8747 16.3042 68.7684 13.3993C68.6235 13.1145 68.495 12.8218 68.3834 12.5224C68.2605 12.1291 68.0517 11.768 67.7723 11.4651L67.0359 10.6738L68.1145 10.6432C70.1128 10.5882 71.7445 10.6157 73.3273 10.6432C74.9101 10.6707 76.5203 10.6982 78.4942 10.6432H78.6378L78.7601 10.7196C79.5566 11.1512 80.4185 11.4495 81.3115 11.6026C81.562 11.6607 81.8095 11.7157 82.0509 11.7768C82.4528 11.6518 82.8064 11.4062 83.0639 11.0733C83.3214 10.7404 83.4702 10.3364 83.4901 9.91598C83.5483 9.04925 83.4887 8.17863 83.3128 7.32793C83.2701 7.14154 83.1876 6.7932 82.0417 6.97043C81.6227 7.05273 81.224 7.21678 80.8684 7.4532L80.6942 7.55098C80.0831 7.90237 79.3773 8.32709 78.7662 8.70904L78.6806 8.77015H78.5492C74.1912 8.94843 69.8264 8.86987 65.4776 8.53487H65.3492L65.2362 8.45543C61.0152 5.6877 56.2817 3.79512 51.3161 2.88975C46.3505 1.98439 41.2537 2.08464 36.3276 3.18459L36.022 3.23959L35.8417 2.99515C33.5592 -0.121519 28.7101 2.30154 25.1687 4.0707C24.2311 4.57221 23.2614 5.01113 22.2659 5.38459L22.1681 5.41515H22.0673C17.9806 5.01178 13.8559 5.25514 9.84507 6.13626C6.41979 6.94293 6.1784 7.35848 5.11812 10.9457C2.04594 21.961 1.01045 33.4446 2.06256 44.8318C2.06912 45.788 2.34211 46.7234 2.8509 47.5329C3.2106 48.0693 3.67613 48.5265 4.21891 48.8764C4.76169 49.2264 5.37027 49.4617 6.00729 49.5679C6.24595 49.5835 6.48488 49.542 6.70432 49.4469C6.92377 49.3518 7.11741 49.2058 7.26923 49.021C7.49907 48.8247 7.67194 48.5703 7.76977 48.2843C7.8676 47.9984 7.88679 47.6914 7.82534 47.3954C7.82534 47.2457 7.80701 47.0899 7.80395 46.8943C7.77034 45.7149 7.6359 44.5782 7.4984 43.4782C7.31957 42.2201 7.23073 40.9509 7.23257 39.6802C7.18788 37.9175 7.44732 36.1603 7.99951 34.4857C8.63483 32.5254 9.98844 30.8782 11.7884 29.8749C12.4262 29.4268 13.1743 29.1615 13.952 29.1076C14.7296 29.0538 15.5071 29.2134 16.2006 29.5693C19.9376 31.809 19.8673 41.4554 19.8367 45.5743V46.0846C20.1909 46.6162 20.6596 47.0617 21.2084 47.3885C21.7572 47.7152 22.3723 47.9149 23.0084 47.9729C23.0901 47.9638 23.1728 47.9713 23.2516 47.995C23.3303 48.0186 23.4035 48.0579 23.4667 48.1104C23.5773 48.2344 23.6614 48.3797 23.7139 48.5373C23.7665 48.6949 23.7863 48.8616 23.7723 49.0271C23.7662 49.1065 23.7692 49.1952 23.7753 49.2593Z" fill="#373435"/>
<path d="M51.4005 39.5575C52.3811 39.4629 53.3495 39.2694 54.2911 38.98C54.764 41.7533 54.9045 44.5731 54.7097 47.3797C53.9962 47.4247 53.2855 47.256 52.6683 46.8951C52.0511 46.5343 51.5555 45.9977 51.2447 45.3539C51.0869 43.4218 51.1392 41.4783 51.4005 39.5575Z" fill="#6978AB"/>
<path d="M54.6089 47.869C53.8227 47.8958 53.0456 47.6938 52.3719 47.2875C51.6983 46.8813 51.157 46.2882 50.8139 45.5804L50.768 45.4948V45.3971C50.6084 43.4293 50.6617 41.4501 50.9269 39.4937L50.9758 39.1148L51.3547 39.0721C52.3028 38.9799 53.2393 38.7936 54.1505 38.5159L54.6516 38.354L54.7739 38.8673C55.2335 41.3694 55.3843 43.9185 55.223 46.4573L55.1986 47.8598H54.728L54.6089 47.869ZM51.7244 45.2107C51.9632 45.6812 52.3197 46.0819 52.7594 46.3738C53.199 46.6656 53.7067 46.8386 54.233 46.8759V46.436C54.3645 44.152 54.2621 41.8607 53.9275 39.5976C53.2418 39.7779 52.5445 39.9107 51.8405 39.9948C51.6272 41.7292 51.5873 43.4806 51.7214 45.2229L51.7244 45.2107Z" fill="#373435"/>
<path d="M7.03419 47.9203C6.34669 43.4164 5.64696 35.4689 8.86752 31.68C9.12238 31.3367 9.39789 31.0091 9.69252 30.6992C14.7739 25.9142 19.2014 30.03 20.4022 35.3284C20.6568 38.6782 20.7088 42.0403 20.5581 45.3964C20.8583 45.9802 21.3215 46.4643 21.8917 46.7897C22.4618 47.1152 23.1141 47.2681 23.7695 47.2298C24.237 48.1953 24.1117 48.9134 24.6434 49.552C25.6525 50.6847 26.9761 51.4913 28.4453 51.8689C29.9146 52.2466 31.4631 52.1782 32.8934 51.6725C33.8504 51.2668 34.782 50.8035 35.6831 50.2853C36.4126 46.1867 36.3087 41.9831 35.3775 37.9256C35.3775 37.3634 35.1911 36.9906 35.1911 36.4284C35.5407 36.4785 35.8697 36.6244 36.1414 36.85C35.5303 39.0928 43.9514 40.6359 53.775 37.9256C53.885 37.5345 53.6956 37.0517 53.9309 36.9111C54.0828 36.816 54.2538 36.7555 54.4318 36.7338C54.6097 36.7122 54.7902 36.73 54.9606 36.7859C55.0064 37.5039 55.0217 38.2036 55.0706 38.9248C55.8324 38.9966 56.5988 39.0068 57.3622 38.9553C56.861 39.4061 56.2023 39.6411 55.5289 39.6092C55.7 39.6092 55.4342 39.9361 55.59 39.9667C56.0422 40.0767 56.9009 39.9056 57.2584 40.0614C56.5892 40.4525 55.8406 40.2325 55.3884 40.6725C55.4984 43.0559 55.5595 45.6134 55.6542 48.0059C57.1277 49.1244 58.9463 49.6915 60.7944 49.6089C62.6425 49.5263 64.4033 48.7991 65.7711 47.5536C66.0631 42.7663 65.9609 37.9631 65.4656 33.1925C65.1081 33.1467 64.7475 33.0825 64.39 33.0367C69.9725 25.5261 71.0481 17.8414 66.37 10.9053C66.3242 10.5998 66.1195 10.2942 66.0645 9.98864C70.1345 9.83281 74.3145 10.2545 78.3967 10.0986C79.4987 10.5159 80.6358 10.8339 81.7945 11.0489C82.9953 10.6273 83.2122 7.29364 82.0297 7.66642C80.8472 8.0392 80.1964 8.78781 78.9284 9.25531C74.2503 9.25531 69.0589 9.06892 64.3839 9.06892C60.5673 6.03232 56.0471 4.00632 51.2407 3.17802C46.4344 2.34972 41.4968 2.74583 36.8839 4.32975C38.3047 7.38903 39.1063 10.6991 39.2426 14.0694C39.379 17.4398 38.8474 20.8038 37.6784 23.9678C37.4125 24.8417 33.3761 27.3961 36.6792 24.6064C40.0159 21.7709 37.9259 2.0717 33.8253 2.03809C29 2.08817 24.3679 3.94101 20.8392 7.23253C20.2006 6.54809 20.2464 6.82614 20.5336 5.86059C17.0437 5.56007 13.5281 5.87027 10.1447 6.77725C9.26786 6.80522 8.41978 7.09688 7.71117 7.61416C7.00257 8.13144 6.46636 8.85032 6.17252 9.67697C3.08894 20.6968 1.84999 32.151 2.50585 43.5753C2.6664 44.9452 3.02885 46.2838 3.58141 47.5475C5.41474 49.5581 6.40474 48.9806 7.0128 47.9203H7.03419Z" fill="url(#paint0_linear_2132_293)"/>
<path d="M14.3492 10.4566C13.3211 10.0374 12.2048 9.88092 11.1011 10.0013C10.9998 9.99029 10.8979 10.0147 10.8127 10.0704C10.7274 10.1262 10.6641 10.2097 10.6336 10.3069C10.5926 10.3773 10.566 10.4552 10.5555 10.536C10.545 10.6168 10.5508 10.6989 10.5725 10.7774C10.6672 11.0433 10.6825 11.028 10.9147 11.083C11.2223 11.1289 11.5363 11.1017 11.8314 11.0036C12.1802 10.8198 12.5651 10.7147 12.9589 10.6957C13.3527 10.6767 13.7459 10.7442 14.1108 10.8936C14.453 10.8783 14.4867 10.7377 14.3767 10.4688L14.3492 10.4566Z" fill="#373435"/>
<path d="M11.1712 11.5841C11.05 11.5846 10.9292 11.5723 10.8106 11.5475H10.7709C10.6091 11.531 10.4571 11.4626 10.3375 11.3524C10.218 11.2422 10.1374 11.0962 10.1078 10.9363C10.0648 10.7927 10.051 10.6419 10.0673 10.4929C10.0836 10.3438 10.1296 10.1995 10.2026 10.0686C10.2734 9.89967 10.3942 9.75647 10.5488 9.65817C10.7034 9.55986 10.8843 9.51115 11.0673 9.51857C12.208 9.39794 13.3609 9.55411 14.4284 9.97385H14.6789L14.8042 10.2794C14.8744 10.3947 14.911 10.5272 14.9099 10.6622C14.9087 10.7971 14.8699 10.9291 14.7978 11.0431C14.7257 11.1572 14.6231 11.2488 14.5017 11.3077C14.3803 11.3666 14.2448 11.3903 14.1106 11.3763H14.0373L13.9548 11.3519C13.6539 11.2216 13.3277 11.16 13 11.1717C12.6723 11.1833 12.3513 11.2678 12.0603 11.4191L12.0053 11.4527L11.9442 11.468C11.6927 11.54 11.4328 11.5791 11.1712 11.5841ZM11.0367 10.5972C11.2425 10.6184 11.4504 10.5976 11.6478 10.5361L11.8128 10.4536C11.5989 10.4536 11.382 10.4536 11.162 10.4872H11.0826L11.0642 10.5238C11.0509 10.5465 11.0416 10.5713 11.0367 10.5972Z" fill="#373435"/>
<path d="M11.831 14.3221C11.9707 14.0317 12.1911 13.7875 12.4658 13.619C12.7405 13.4505 13.058 13.3647 13.3802 13.3719C13.4413 12.9807 13.3802 12.7607 12.8791 12.7607C12.1674 13.1215 11.5596 13.6579 11.113 14.3191C10.8566 14.8939 10.7748 15.5314 10.8777 16.1524C10.9336 16.5768 11.1528 16.9627 11.4888 17.228C11.8367 17.4457 12.2423 17.5532 12.6524 17.5363C13.0624 17.5194 13.4578 17.3789 13.7866 17.1332C14.8805 16.4946 15.9744 14.6705 14.0524 13.983C13.6673 13.9078 13.271 13.9105 12.8869 13.9907C12.5027 14.071 12.1386 14.2273 11.8158 14.4505C11.7852 14.4657 11.7699 14.4046 11.8158 14.3252L11.831 14.3221Z" fill="#373435"/>
<path d="M12.424 18.0462C11.97 18.0552 11.5277 17.9013 11.1774 17.6124C10.745 17.2649 10.4646 16.7632 10.3951 16.2129C10.2707 15.4855 10.3775 14.7375 10.7007 14.074C11.1896 13.3402 11.8574 12.7429 12.641 12.3385L12.7479 12.2743H12.864C13.0139 12.2598 13.1651 12.2783 13.3071 12.3285C13.4491 12.3786 13.5784 12.4592 13.686 12.5646C13.7783 12.6898 13.8421 12.8338 13.8727 12.9864C13.9033 13.139 13.9001 13.2964 13.8632 13.4476C14.2781 13.5103 14.6645 13.6966 14.9719 13.9823C15.2794 14.2679 15.4935 14.6395 15.5865 15.0487C15.5689 15.5667 15.4164 16.0711 15.1442 16.5121C14.872 16.9532 14.4894 17.3155 14.0343 17.5635C13.549 17.8624 12.9938 18.0289 12.424 18.0462ZM11.4371 14.789C11.324 15.2196 11.2991 15.6686 11.3637 16.109C11.4066 16.4099 11.5656 16.6819 11.8068 16.8668C12.3965 17.3587 13.3529 16.8332 13.5393 16.7232C13.8333 16.5661 14.0847 16.34 14.2721 16.0643C14.4594 15.7886 14.577 15.4716 14.6149 15.1404C14.5874 14.8349 14.3429 14.6149 13.8907 14.4529C13.255 14.357 12.6067 14.5079 12.0787 14.8746L12.039 14.896L11.7121 15.061L11.4432 14.789H11.4371Z" fill="#373435"/>
<path d="M12.6806 16.4422C12.687 16.5536 12.7086 16.6636 12.7448 16.7692C12.7605 16.8184 12.782 16.8656 12.809 16.9097C12.7198 16.9689 12.6175 17.0054 12.511 17.0161C12.4045 17.0267 12.297 17.0112 12.1979 16.9708C11.5226 16.6653 11.5715 15.7181 11.9167 15.2047C12.0976 14.94 12.3381 14.7213 12.6188 14.5664C12.8995 14.4114 13.2127 14.3245 13.5331 14.3125C13.8937 14.4989 14.0037 14.6731 13.8142 14.7189C13.7072 14.7392 13.6041 14.7763 13.5087 14.8289C13.4361 14.8614 13.3714 14.909 13.3187 14.9686C13.266 15.0281 13.2266 15.0982 13.2031 15.1742C13.359 15.22 13.4384 15.1742 13.579 15.2353V15.7211C13.4288 15.6457 13.2573 15.6241 13.0931 15.66C12.7876 15.7547 12.6684 16.1917 12.6684 16.4575L12.6806 16.4422Z" fill="#FEFEFE"/>
<path d="M13.9731 28.9025C14.8388 28.7169 15.6589 28.3615 16.3862 27.8568C17.1135 27.352 17.7334 26.708 18.21 25.962C18.6866 25.2159 19.0104 24.3828 19.1627 23.5107C19.315 22.6386 19.2928 21.745 19.0973 20.8816C18.5503 20.8702 18.0143 20.7255 17.5359 20.46C17.5054 20.2583 17.4901 20.0536 17.4565 19.8488C18.7215 20.46 20.512 20.6433 20.2798 18.7091C20.4509 18.6633 20.7168 18.648 20.8909 18.5991C20.8298 19.9558 20.5854 20.0811 19.7512 20.6586C19.9911 22.1377 19.866 23.653 19.3867 25.0727C18.9074 26.4925 18.0885 27.7736 17.0012 28.8047C16.9365 29.2291 16.9742 29.6628 17.1112 30.0697C16.7112 29.6518 16.2204 29.3316 15.6767 29.1339C15.1331 28.9363 14.5512 28.8665 13.9762 28.93L13.9731 28.9025Z" fill="#373435"/>
<path d="M17.9729 31.7504L16.7506 30.3999C16.3958 30.0345 15.9613 29.7561 15.4811 29.5865C15.0008 29.4169 14.4879 29.3606 13.9823 29.4221H13.4873V28.5665L13.8326 28.429C15.4058 28.1064 16.7914 27.1834 17.695 25.8558C18.5987 24.5282 18.9494 22.9007 18.6726 21.3188C18.1771 21.2818 17.6975 21.1279 17.2731 20.8696L17.0837 20.7504L17.0501 20.5335C17.0348 20.4265 17.0195 20.3196 17.0073 20.2126C16.9951 20.1057 16.9859 20.0232 16.9706 19.9254L16.8301 19.0088L17.6642 19.4121C17.9445 19.5921 18.2612 19.7074 18.5915 19.7497C18.9219 19.7919 19.2575 19.7601 19.574 19.6565C19.7695 19.519 19.8429 19.2196 19.7909 18.7674L19.7451 18.3518L20.1484 18.2418C20.2681 18.212 20.3896 18.1896 20.512 18.1746C20.5942 18.1649 20.6759 18.1507 20.7565 18.1318L21.4043 17.9546L21.3737 18.6238C21.3095 20.0171 21.004 20.3685 20.2706 20.891C20.4616 22.3763 20.3057 23.8856 19.8154 25.3006C19.325 26.7156 18.5134 27.9976 17.4443 29.0463C17.4449 29.3066 17.4809 29.5656 17.5512 29.8163L17.9729 31.7504ZM15.834 28.6704C16.0561 28.7415 16.271 28.8336 16.4756 28.9454C16.4848 28.8414 16.5064 28.7388 16.5398 28.6399L16.5734 28.5421L16.6437 28.4657C16.9044 28.1866 17.1458 27.9065 17.3679 27.6254C16.8984 28.0315 16.3837 28.3822 15.834 28.6704Z" fill="#373435"/>
<path d="M62.3551 49.5399C62.2788 48.388 62.1382 47.3766 62.1046 46.2216C62.0282 43.5755 60.0177 42.998 59.9077 45.6441C59.8465 47.0313 59.9077 48.3391 59.9077 49.6469C60.7233 49.7584 61.5524 49.7222 62.3551 49.5399Z" fill="#8093D0"/>
<path d="M61.0776 49.8665C60.7721 49.8665 60.4848 49.8481 60.1946 49.8298L59.7362 49.8054V49.6526C59.7362 49.2187 59.7362 48.7879 59.7362 48.354C59.7362 47.4801 59.7087 46.5756 59.7362 45.6437C59.7943 44.2595 60.3473 43.7676 60.8393 43.7676C61.4901 43.7676 62.2051 44.6323 62.254 46.212C62.2723 46.9179 62.3334 47.5626 62.3946 48.244C62.4343 48.6595 62.4709 49.0812 62.5015 49.5212V49.6526L62.3762 49.6892C61.9539 49.8093 61.5167 49.869 61.0776 49.8665ZM60.0723 49.4998H60.219C60.8744 49.5769 61.5379 49.547 62.1837 49.4112C62.1562 49.0201 62.1196 48.6442 62.0859 48.2745C62.0218 47.587 61.9637 46.9392 61.9423 46.2212C61.9026 44.9042 61.3312 44.0823 60.8515 44.0823C60.5215 44.0823 60.1212 44.4917 60.0723 45.6467C60.0296 46.5634 60.0448 47.4801 60.0723 48.3387C60.0662 48.7298 60.0723 49.1117 60.0723 49.4998Z" fill="#373435"/>
<path d="M59.9438 49.6746C59.722 48.3454 59.6391 46.9967 59.6963 45.6504C59.8675 43.2059 57.5575 40.6301 57.4016 45.1676C57.345 46.4937 57.3971 47.8222 57.5575 49.1398C58.3379 49.3797 59.1357 49.5584 59.9438 49.6746Z" fill="#8093D0"/>
<path d="M60.1304 49.8698L59.9195 49.8362C59.1021 49.7216 58.295 49.5428 57.5057 49.3015L57.4079 49.2679V49.167C57.2462 47.8393 57.194 46.5005 57.252 45.1643C57.3009 43.7006 57.5576 42.8329 58.0557 42.5823C58.1694 42.5256 58.2968 42.502 58.4233 42.5145C58.5498 42.5269 58.6702 42.5748 58.7707 42.6526C59.1704 43.038 59.4774 43.5092 59.6685 44.0305C59.8596 44.5519 59.9297 45.1099 59.8737 45.6623C59.8048 46.8423 59.8611 48.0264 60.0418 49.1945L60.1304 49.8698ZM57.7043 49.0234C58.3764 49.2231 59.0614 49.3762 59.7545 49.4818L59.724 49.2281C59.5351 48.0424 59.4706 46.8401 59.5315 45.6409C59.5833 45.1456 59.5244 44.6449 59.359 44.1751C59.1936 43.7053 58.9258 43.2782 58.5751 42.9245C58.5227 42.8799 58.4587 42.851 58.3906 42.8412C58.3224 42.8315 58.2529 42.8413 58.1901 42.8695C58.022 42.9551 57.6248 43.3554 57.5607 45.1734C57.5059 46.4585 57.5539 47.746 57.7043 49.0234Z" fill="#373435"/>
<path d="M57.5608 49.3479L57.2338 44.1535C56.9985 40.276 55.4402 40.7282 55.3149 43.9212C55.2538 45.4307 55.376 46.2557 55.2355 47.7682C55.9688 48.2662 56.7327 49.2471 57.5608 49.3265V49.3479Z" fill="#8093D0"/>
<path d="M57.5454 49.5001C56.8917 49.3404 56.3009 48.9881 55.8496 48.4887C55.6269 48.2835 55.3923 48.0917 55.1468 47.9143L55.0674 47.8593V47.7646C55.1313 47.0331 55.1527 46.2985 55.1315 45.5646C55.1315 45.0696 55.1315 44.5593 55.1315 43.9268C55.1957 42.2982 55.6266 41.241 56.2285 41.2349C56.8396 41.2349 57.2613 42.3257 57.3713 44.156L57.6982 49.3504H57.5332L57.5454 49.5001ZM55.4065 47.7004C55.6265 47.8593 55.8466 48.0549 56.0635 48.2443C56.4373 48.6302 56.8867 48.935 57.3835 49.1396L57.0779 44.1774C56.9618 42.2554 56.5249 41.5618 56.2591 41.5618C55.9841 41.5618 55.5471 42.3226 55.486 43.9421C55.4585 44.5532 55.4677 45.0757 55.486 45.5646C55.498 46.2754 55.4715 46.9864 55.4065 47.6943V47.7004Z" fill="#373435"/>
<path d="M30.9066 52.0307C30.948 50.8145 30.8857 49.5971 30.7202 48.3915C30.0663 45.5804 29.2413 45.2351 28.2758 47.3129V51.9818C29.149 52.1013 30.0338 52.1116 30.9096 52.0123L30.9066 52.0307Z" fill="#8093D0"/>
<path d="M29.9201 52.2499C29.4129 52.2499 28.9057 52.204 28.4076 52.1582L28.1021 52.1307V47.2418C28.5696 46.2365 29.0187 45.769 29.4709 45.8179C30.0271 45.876 30.4671 46.6796 30.8551 48.351L30.8857 48.6168C31.0362 49.7489 31.0904 50.8917 31.0476 52.0329H30.8887L30.9101 52.1735C30.5826 52.2248 30.2516 52.2503 29.9201 52.2499ZM28.4351 51.8343C29.2023 51.9327 29.978 51.946 30.7482 51.874C30.7786 50.7988 30.7234 49.723 30.5832 48.6565L30.5557 48.409C30.1096 46.4932 29.6757 46.1663 29.4587 46.1449C29.2907 46.1449 28.9454 46.264 28.4351 47.3518V51.8343Z" fill="#373435"/>
<path d="M26.1251 51.2605C26.1404 49.4699 26.1557 48.2844 26.1557 46.4938C26.8096 43.8599 27.4788 44.1258 28.1326 47.2883C28.1479 48.9872 28.1632 50.0933 28.1632 51.7891C27.4479 51.7611 26.7469 51.5809 26.1068 51.2605H26.1251Z" fill="#8093D0"/>
<path d="M28.3161 51.9725L28.0411 51.942C27.3351 51.9078 26.6445 51.7234 26.0153 51.4011L25.4806 51.0956H25.9511V50.1789C25.9511 48.9261 25.9725 47.8903 25.9725 46.4786V46.4389C26.3025 45.1128 26.6264 44.52 27.0267 44.52C27.3323 44.52 27.7631 44.8409 28.2489 47.2395V48.2967C28.2489 49.4731 28.2703 50.4356 28.2703 51.777L28.3161 51.9725ZM26.2781 51.172C26.8163 51.4252 27.3983 51.5726 27.9923 51.6059C27.9923 50.3653 27.9923 49.4334 27.9709 48.312V47.2884C27.4911 44.9875 27.1245 44.8622 27.0542 44.8622C26.9839 44.8622 26.7211 44.8989 26.3178 46.5122C26.3178 47.9147 26.3178 48.9567 26.2964 50.1972L26.2781 51.172Z" fill="#373435"/>
<path d="M23.6808 47.737C23.7755 46.2397 24.0872 44.7273 24.1788 43.23C23.5677 40.2661 22.9016 39.7375 22.2019 41.6717C22.1713 43.5906 22.156 45.5248 22.1255 47.4436C22.5878 47.7385 23.1444 47.8476 23.6838 47.7492L23.6808 47.737Z" fill="#8093D0"/>
<path d="M23.2927 47.9723C22.9195 47.9531 22.5558 47.8485 22.2293 47.6668L21.9727 47.5506V47.4437C21.989 46.4843 22.0022 45.5228 22.0124 44.5593C22.0226 43.5957 22.0358 42.6332 22.0521 41.6718V41.6198C22.3577 40.7429 22.6815 40.3487 23.0482 40.3731C23.4149 40.3976 23.8396 40.7429 24.3438 43.2026V43.2454C24.2979 44.0001 24.194 44.7731 24.0932 45.5095C23.9924 46.2459 23.8915 47.0068 23.8457 47.7462V47.8868L23.7174 47.9143C23.5782 47.9482 23.4359 47.9677 23.2927 47.9723ZM22.3027 47.3612L22.3638 47.3887C22.7174 47.5999 23.1311 47.688 23.5402 47.6393C23.589 46.9212 23.6868 46.1909 23.7846 45.4851C23.8824 44.7793 23.9832 44.0001 24.0321 43.2637C23.5524 40.9323 23.149 40.7245 23.036 40.7154C22.9749 40.7154 22.7304 40.7673 22.379 41.7237C22.3628 42.673 22.3495 43.6253 22.3393 44.5806C22.3291 45.536 22.3169 46.4547 22.3027 47.3368V47.3612Z" fill="#373435"/>
<path d="M52.7728 47.2632C52.8981 45.6712 52.727 44.3451 52.7728 42.7868C52.8186 40.8984 54.6856 41.4454 54.765 43.1779C54.8445 44.9104 54.9361 45.7995 55.0308 47.529C54.2742 47.6571 53.4967 47.5648 52.7911 47.2632H52.7728Z" fill="#8093D0"/>
<path d="M54.1234 47.7219C53.6455 47.7387 53.1713 47.6335 52.7453 47.4164H52.6109V47.2422C52.6655 46.3918 52.6716 45.5389 52.6292 44.6878C52.6109 44.0767 52.5895 43.4442 52.6109 42.775C52.6353 41.7911 53.1211 41.4366 53.5673 41.4336C54.1784 41.4336 54.872 42.0905 54.9178 43.163C54.9636 44.0461 55.0095 44.6908 55.0523 45.3661C55.095 46.0414 55.1378 46.6586 55.1836 47.505V47.67L54.71 47.6883C54.5175 47.7128 54.3189 47.7219 54.1234 47.7219ZM52.9409 47.1597C53.5 47.391 54.1113 47.467 54.71 47.3797H54.8567C54.8139 46.6067 54.7742 46.0016 54.7345 45.3997C54.6917 44.7367 54.6489 44.0767 54.6 43.1905C54.5511 42.3044 54.0409 41.7697 53.5734 41.7697C53.1914 41.7697 52.9623 42.1578 52.9378 42.7964C52.9134 43.435 52.9378 44.0828 52.9561 44.6908C52.9938 45.5135 52.9887 46.3376 52.9409 47.1597Z" fill="#373435"/>
<path d="M52.6748 47.3212C52.629 46.154 52.6442 44.7515 52.5984 43.5843C52.7084 41.9801 51.6023 39.6121 51.1684 42.2459C51.0306 43.2213 50.948 44.2037 50.9209 45.1884C51.4245 45.9623 52.0127 46.6777 52.6748 47.3212Z" fill="#B9C5EA"/>
<path d="M52.8489 47.6515L52.577 47.4559C52.0393 46.9818 51.5694 46.4358 51.1806 45.8334C51.0339 45.6287 50.8995 45.4423 50.7895 45.3018L50.7498 45.2529V45.1918C50.7711 44.8862 50.7864 44.5807 50.7986 44.3362C50.8216 43.6319 50.889 42.9298 51.0003 42.234C51.0553 41.8918 51.2264 40.8529 51.7734 40.9201C52.3845 40.9934 52.8214 42.6251 52.7542 43.609C52.7786 44.1773 52.7848 44.8312 52.7939 45.4637C52.8031 46.0962 52.8092 46.7471 52.8336 47.3276L52.8489 47.6515ZM51.0828 45.1398C51.1898 45.2773 51.312 45.4454 51.4464 45.6348C51.763 46.1025 52.1155 46.5448 52.5006 46.9579C52.5006 46.4751 52.4792 45.9587 52.4731 45.4576C52.4731 44.8282 52.4578 44.1743 52.4334 43.5937C52.5098 42.4571 52.0056 41.2623 51.7398 41.2318C51.6817 41.2134 51.4709 41.3968 51.3242 42.2737C51.2147 42.9574 51.1484 43.6473 51.1256 44.3393C51.1134 44.5837 51.1011 44.8434 51.0828 45.1368V45.1398Z" fill="#373435"/>
<path d="M38.7843 25.8471C39.5787 22.0583 40.3579 18.2694 41.1523 14.4652C41.2776 13.576 41.5098 12.7816 42.4448 12.7021H43.5815C44.2659 12.7021 44.6571 13.1085 44.7182 13.9244L44.4859 15.608C44.5165 16.2955 44.9382 16.6835 45.7784 16.7477C46.9151 16.7935 48.0701 16.8577 49.2068 16.9035C50.9209 17.0135 52.0729 17.7469 51.9568 19.8827C51.5993 21.768 51.2387 23.6563 50.8812 25.5263C50.8617 25.9623 50.7138 26.3828 50.4562 26.7351C50.1985 27.0874 49.8425 27.3557 49.4329 27.5063C48.9196 27.4758 48.3421 27.5369 47.8287 27.5063C46.9396 27.5521 46.4262 27.2252 46.7532 26.0549C47.0801 24.573 47.4865 22.7183 47.8287 21.2363C47.954 19.4733 47.3001 19.3816 46.6065 19.2563C46.0137 19.1769 45.4393 19.2563 44.8465 19.1769C43.9726 19.3021 43.6457 20.1424 43.3982 21.0805C43.0254 22.6541 42.6343 24.2308 42.2615 25.8196C42.0904 26.6783 41.904 27.2374 41.2654 27.5033H39.3648C38.6478 27.3464 38.4441 26.7852 38.7537 25.8196L38.7843 25.8471Z" fill="#373435"/>
<path d="M48.1524 27.8368C48.0394 27.8368 47.9294 27.8368 47.8194 27.8368C47.5899 27.8755 47.3545 27.8575 47.1335 27.7846C46.9125 27.7116 46.7127 27.5859 46.5513 27.4182C46.416 27.2049 46.3345 26.9619 46.3138 26.7102C46.293 26.4585 46.3336 26.2055 46.4322 25.9729L46.6185 25.1235C46.9027 23.834 47.2297 22.3948 47.4985 21.194C47.5933 19.7732 47.2113 19.7029 46.5819 19.5868C46.0135 19.5104 45.4666 19.5868 44.8555 19.5135C44.2444 19.6235 43.9663 20.2315 43.7158 21.1696C43.5508 21.8632 43.3797 22.569 43.2085 23.2748C42.9977 24.1487 42.7869 25.0226 42.5791 25.9026C42.3713 26.7826 42.2033 27.4732 41.3905 27.8123L41.3294 27.8368H39.2944C39.1215 27.8085 38.9567 27.7434 38.8112 27.6459C38.6657 27.5483 38.5429 27.4207 38.451 27.2715C38.3442 27.031 38.2891 26.7708 38.2891 26.5076C38.2891 26.2445 38.3442 25.9842 38.451 25.7437L38.5519 25.4382C38.9593 23.4643 39.3667 21.4894 39.7741 19.5135C40.1245 17.8227 40.4759 16.131 40.8283 14.4382C40.9138 13.8271 41.0941 12.5285 42.4141 12.4185H43.5783C44.0794 12.4185 44.938 12.614 45.0388 13.9462V13.9798L44.8035 15.6665C44.8249 16.0118 44.9685 16.406 45.7935 16.4671L47.5077 16.5435L49.2097 16.6198C49.6446 16.5792 50.0831 16.6395 50.4909 16.7962C50.8987 16.953 51.2648 17.2018 51.5606 17.5233C51.8563 17.8448 52.0738 18.2303 52.1961 18.6497C52.3183 19.0692 52.342 19.5112 52.2652 19.9412V19.984C51.9077 21.8723 51.5472 23.7576 51.1897 25.6307C51.1595 26.1227 50.9865 26.5952 50.6918 26.9903C50.3971 27.3854 49.9935 27.686 49.5305 27.8551L49.4694 27.8765H49.4022C49.1608 27.8765 48.901 27.8765 48.6291 27.8765C48.4733 27.8307 48.3113 27.8368 48.1524 27.8368ZM47.8224 27.1768H47.8408C48.0822 27.1768 48.3419 27.1768 48.6138 27.1768C48.8858 27.1768 49.1272 27.1768 49.3777 27.1768C49.7166 27.0361 50.0077 26.8008 50.2163 26.4989C50.425 26.1971 50.5422 25.8416 50.5541 25.4748C50.9126 23.6008 51.2701 21.7226 51.6266 19.8404C51.7213 18.1232 50.991 17.341 49.1822 17.2279L47.4833 17.1515L45.763 17.0721C44.4185 16.9712 44.1802 16.1218 44.1588 15.6237V15.584L44.391 13.9065C44.3208 13.1243 43.9205 13.0235 43.5813 13.0235H42.4447C41.8824 13.0723 41.6197 13.4604 41.473 14.5054C41.1155 16.2226 40.7641 17.9123 40.4127 19.6021C39.9768 21.7063 39.5388 23.8085 39.0988 25.9087L38.9766 26.4985L38.9399 26.4618C38.9168 26.6192 38.9413 26.7798 39.0102 26.9232C39.0539 26.9887 39.1106 27.0446 39.1768 27.0872C39.2431 27.1298 39.3174 27.1582 39.3952 27.1707H41.1888C41.6258 26.9629 41.7755 26.5596 41.9344 25.7468C42.1452 24.8546 42.356 23.9776 42.5669 23.1037C42.738 22.3989 42.9071 21.6951 43.0741 20.9923C43.2605 20.2957 43.5997 19.0123 44.7944 18.8535H44.8372H44.883C45.4391 18.9268 46.0197 18.8535 46.643 18.9329H46.6858C47.5597 19.0918 48.2716 19.376 48.1402 21.2521V21.304C47.8622 22.5079 47.5291 23.9562 47.2572 25.2518L47.0647 26.1196C46.9424 26.5565 46.9424 26.856 47.0647 27.0026C47.1869 27.1493 47.5444 27.189 47.8072 27.1768H47.8224Z" fill="#FEFEFE"/>
<path d="M24.0597 30.2319C24.8388 26.1924 25.6333 22.153 26.4155 18.1288C26.4053 17.946 26.4339 17.7631 26.4992 17.592C26.5646 17.421 26.6653 17.2656 26.7948 17.1361C26.9242 17.0066 27.0796 16.9059 27.2506 16.8406C27.4217 16.7752 27.6046 16.7467 27.7875 16.7569H34.9619C35.6455 16.7367 36.3217 16.9033 36.9177 17.2387C37.5136 17.5741 38.0069 18.0657 38.3444 18.6605C38.8247 19.5302 39.0263 20.5264 38.9219 21.5144C38.7684 23.2108 38.0168 24.7974 36.8013 25.9908C35.8061 26.8312 34.5868 27.3622 33.2936 27.5186C32.0713 27.5491 30.8491 27.5644 29.6269 27.598C28.9241 27.5369 28.2244 27.7233 28.0533 28.2855C27.8363 29.0494 27.6805 29.8133 27.4605 30.5619C27.3842 30.7305 27.2723 30.8806 27.1326 31.0019C26.9928 31.1232 26.8284 31.2128 26.6508 31.2647C25.948 31.2799 25.233 31.2799 24.5302 31.2952C23.7786 31.3074 23.9344 30.8613 24.0597 30.2319ZM29.0647 23.308C29.2663 22.2477 29.5169 21.0469 29.7033 20.1119C29.8029 19.8318 29.9902 19.5913 30.2373 19.4262C30.4845 19.261 30.7784 19.18 31.0752 19.1952C31.8149 19.1427 32.5576 19.2383 33.26 19.4763C33.5674 19.6005 33.845 19.7885 34.0743 20.0281C34.3037 20.2676 34.4795 20.5531 34.5901 20.8657C34.7008 21.1783 34.7437 21.5108 34.7162 21.8412C34.6886 22.1717 34.5911 22.4925 34.4302 22.7824C34.1585 23.2928 33.7886 23.7445 33.3419 24.1115C32.8951 24.4786 32.3803 24.7538 31.8269 24.9213C31.3187 25.0541 30.793 25.1067 30.2686 25.0772C28.9272 24.9366 28.8172 24.5791 29.0463 23.2988L29.0647 23.308Z" fill="#373435"/>
<path d="M24.4932 31.6196C24.3631 31.6328 24.2317 31.6162 24.1089 31.5712C23.9861 31.5262 23.8751 31.454 23.7843 31.3599C23.5521 31.0819 23.6315 30.706 23.714 30.3088L23.7415 30.1713C24.1713 27.9469 24.6042 25.7224 25.0401 23.498C25.3905 21.7013 25.7398 19.9067 26.0882 18.1141C26.0751 17.9034 26.1057 17.6922 26.1783 17.4939C26.2509 17.2957 26.3638 17.1146 26.5098 16.9621C26.6759 16.788 26.8769 16.6508 27.0996 16.5597C27.3223 16.4686 27.5618 16.4256 27.8023 16.4335H34.9615C35.7047 16.4108 36.4399 16.5929 37.0865 16.9599C37.7332 17.3269 38.2666 17.8647 38.6282 18.5144C39.1349 19.437 39.3481 20.4923 39.2393 21.5394C39.08 23.3126 38.296 24.9716 37.0271 26.2205L36.9904 26.2541C35.9492 27.1303 34.6748 27.6836 33.3237 27.846C32.6943 27.8644 32.0801 27.8735 31.469 27.8858L29.6357 27.9255H29.599C29.1071 27.8827 28.4868 27.9744 28.3768 28.3838C28.2668 28.7933 28.1782 29.1294 28.0712 29.5052C27.9643 29.881 27.8818 30.2691 27.7657 30.6571C27.6795 30.8751 27.5451 31.0708 27.3726 31.2295C27.2001 31.3883 26.9939 31.506 26.7696 31.5738L26.7115 31.5983H26.6504L25.5962 31.6135L24.5298 31.6288L24.4932 31.6196ZM24.2885 30.9474C24.3641 30.9677 24.4426 30.9749 24.5207 30.9688L25.5962 30.9535H26.5801C26.9101 30.8069 27.0996 30.648 27.1515 30.483C27.2585 30.1071 27.3501 29.7344 27.4571 29.3585C27.564 28.9827 27.6465 28.5946 27.7626 28.2096C27.9612 27.5558 28.6793 27.2044 29.6601 27.293L31.4751 27.2533L33.3085 27.2135C34.525 27.0588 35.671 26.5558 36.6085 25.7652C37.76 24.629 38.4731 23.1227 38.6221 21.5119C38.7215 20.5819 38.5316 19.644 38.0782 18.826C37.7613 18.2868 37.3055 17.8424 36.7584 17.5393C36.2113 17.2361 35.5929 17.0854 34.9676 17.1027H27.7871C27.6375 17.0967 27.4885 17.1227 27.3498 17.1791C27.2112 17.2355 27.0863 17.3209 26.9835 17.4296C26.895 17.5201 26.8273 17.6287 26.7851 17.748C26.7429 17.8672 26.7272 17.9942 26.739 18.1202V18.166V18.2119C26.3886 20.0187 26.0362 21.8286 25.6818 23.6416C25.2479 25.864 24.815 28.0884 24.3832 30.3149L24.3526 30.4585C24.3061 30.6234 24.2855 30.7945 24.2915 30.9658L24.2885 30.9474ZM30.5585 25.4108C30.4515 25.4108 30.3446 25.4108 30.2346 25.4108C29.9767 25.417 29.7201 25.3719 29.4798 25.278C29.2396 25.1841 29.0204 25.0433 28.8351 24.8638C28.5632 24.5002 28.5876 24.0174 28.7282 23.2505L28.8382 22.6394L28.8596 22.6608C28.9665 22.1138 29.0826 21.5516 29.1896 21.023L29.4126 19.9749C29.5393 19.6354 29.7715 19.3454 30.075 19.1475C30.3785 18.9495 30.7375 18.854 31.0993 18.8749C31.8709 18.8232 32.645 18.9272 33.3757 19.1805C33.6983 19.2962 33.9932 19.478 34.2416 19.7142C34.4899 19.9505 34.6862 20.236 34.8179 20.5524C34.9632 20.9334 35.03 21.3399 35.0143 21.7473C34.9985 22.1548 34.9005 22.5549 34.7262 22.9235L34.7048 22.9633C34.4133 23.507 34.0173 23.988 33.5397 24.3786C33.0621 24.7692 32.5121 25.0618 31.9212 25.2396C31.4735 25.3463 31.0156 25.4036 30.5554 25.4108H30.5585ZM29.2965 23.8463C29.2487 24.0514 29.2713 24.2667 29.3607 24.4574C29.4676 24.598 29.7671 24.6896 30.3018 24.7477C30.7914 24.772 31.2818 24.7215 31.7562 24.598C32.264 24.4425 32.7362 24.1884 33.1457 23.8502C33.5552 23.512 33.8939 23.0964 34.1426 22.6271C34.2767 22.342 34.3525 22.033 34.3656 21.7182C34.3787 21.4034 34.3289 21.0891 34.219 20.7938C34.12 20.5602 33.9735 20.3497 33.7889 20.1756C33.6043 20.0015 33.3855 19.8676 33.1465 19.7824C32.4843 19.5591 31.784 19.4708 31.0871 19.5227C30.8559 19.5037 30.6251 19.5625 30.4313 19.6899C30.2375 19.8172 30.0919 20.0058 30.0176 20.2255L29.8312 21.1421C29.6846 21.8633 29.5257 22.6485 29.3882 23.3696L29.2965 23.8463Z" fill="#FEFEFE"/>
<path d="M51.3179 30.2319C52.0971 26.1924 52.8915 22.153 53.6737 18.1288C53.6636 17.946 53.6921 17.7631 53.7574 17.592C53.8228 17.421 53.9235 17.2656 54.053 17.1361C54.1825 17.0066 54.3378 16.9059 54.5089 16.8406C54.6799 16.7752 54.8628 16.7467 55.0457 16.7569H62.2201C62.9037 16.7367 63.5799 16.9033 64.1759 17.2387C64.7719 17.5741 65.2651 18.0657 65.6026 18.6605C66.0829 19.5302 66.2845 20.5264 66.1801 21.5144C66.0266 23.2108 65.275 24.7974 64.0596 25.9908C63.0643 26.8312 61.845 27.3622 60.5518 27.5186C59.3296 27.5491 58.1073 27.5644 56.8851 27.598C56.1823 27.5369 55.4826 27.7233 55.3115 28.2855C55.0946 29.0494 54.9387 29.8133 54.7187 30.5619C54.6424 30.7305 54.5305 30.8806 54.3908 31.0019C54.251 31.1232 54.0867 31.2128 53.909 31.2647C53.2062 31.2799 52.4912 31.2799 51.7884 31.2952C51.0368 31.3074 51.1804 30.8613 51.3179 30.2319ZM56.3229 23.308C56.5246 22.2477 56.7751 21.0469 56.9615 20.1119C57.0611 19.8318 57.2484 19.5913 57.4955 19.4262C57.7427 19.261 58.0366 19.18 58.3334 19.1952C59.0731 19.1427 59.8159 19.2383 60.5182 19.4763C60.8257 19.6005 61.1032 19.7885 61.3326 20.0281C61.5619 20.2676 61.7377 20.5531 61.8483 20.8657C61.959 21.1783 62.0019 21.5108 61.9744 21.8412C61.9468 22.1717 61.8494 22.4925 61.6884 22.7824C61.4167 23.2928 61.0469 23.7445 60.6001 24.1115C60.1534 24.4786 59.6385 24.7538 59.0851 24.9213C58.5769 25.0541 58.0512 25.1067 57.5268 25.0772C56.1854 24.9366 56.0754 24.5791 56.3046 23.2988L56.3229 23.308Z" fill="#373435"/>
<path d="M51.752 31.6196C51.6219 31.6325 51.4905 31.6159 51.3678 31.5709C51.245 31.5259 51.134 31.4538 51.0431 31.3599C50.8109 31.0819 50.8903 30.706 50.9728 30.3088L51.0003 30.1713C51.4281 27.953 51.8589 25.7367 52.2928 23.5224C52.6452 21.7176 52.9966 19.9148 53.347 18.1141C53.3338 17.9034 53.3645 17.6922 53.4371 17.4939C53.5097 17.2957 53.6226 17.1146 53.7686 16.9621C53.9347 16.788 54.1357 16.6508 54.3584 16.5597C54.5811 16.4686 54.8206 16.4256 55.0611 16.4335H62.2203C62.9635 16.4108 63.6987 16.5929 64.3453 16.9599C64.992 17.3269 65.5253 17.8647 65.887 18.5144C66.3935 19.4371 66.6067 20.4923 66.4981 21.5394C66.3386 23.3125 65.5546 24.9715 64.2859 26.2205L64.2492 26.2541C63.208 27.1303 61.9336 27.6836 60.5825 27.846C59.9531 27.8644 59.3389 27.8735 58.7278 27.8858L56.8945 27.9255H56.8578C56.3628 27.8827 55.7456 27.9744 55.6356 28.3838C55.5256 28.7933 55.437 29.1294 55.33 29.5021C55.2231 29.8749 55.1406 30.2691 55.0245 30.6541C54.9382 30.8721 54.8039 31.0677 54.6314 31.2265C54.4589 31.3852 54.2527 31.5029 54.0284 31.5708L53.9703 31.5952H53.9092L52.855 31.6105L51.7886 31.6258L51.752 31.6196ZM51.5472 30.9474C51.623 30.967 51.7014 30.9742 51.7795 30.9688L52.855 30.9535H53.8389C54.1689 30.8069 54.3584 30.648 54.4103 30.483C54.5172 30.1071 54.612 29.7313 54.7159 29.3585C54.8197 28.9858 54.9053 28.5977 55.0214 28.2127C55.22 27.5588 55.9381 27.2074 56.9189 27.296L58.7339 27.2563L60.5672 27.2166C61.7838 27.0618 62.9298 26.5589 63.8672 25.7683C65.0188 24.6321 65.7319 23.1257 65.8809 21.5149C65.9805 20.585 65.7905 19.647 65.337 18.8291C65.0201 18.2898 64.5643 17.8454 64.0172 17.5423C63.4701 17.2392 62.8516 17.0884 62.2264 17.1058H55.0459C54.8963 17.0993 54.7471 17.1252 54.6084 17.1816C54.4697 17.238 54.3448 17.3237 54.2422 17.4327C54.1538 17.5231 54.0861 17.6318 54.0439 17.751C54.0017 17.8703 53.9859 17.9973 53.9978 18.1233V18.1691V18.2149C53.6454 20.0299 53.292 21.848 52.9375 23.6691C52.5057 25.8833 52.0748 28.0996 51.645 30.318L51.6145 30.4616C51.5679 30.6265 51.5473 30.7976 51.5534 30.9688L51.5472 30.9474ZM57.8172 25.4108C57.7103 25.4108 57.6034 25.4108 57.4934 25.4108C57.2355 25.417 56.9789 25.3719 56.7386 25.278C56.4984 25.1841 56.2792 25.0433 56.0939 24.8638C55.822 24.5002 55.8464 24.0174 55.987 23.2505L56.097 22.6394L56.1184 22.6608C56.2253 22.1108 56.3414 21.5455 56.4484 21.0138L56.6714 19.9719C56.7969 19.6315 57.0287 19.3407 57.3326 19.1425C57.6364 18.9444 57.996 18.8495 58.3581 18.8719C59.1297 18.8211 59.9036 18.925 60.6345 19.1774C60.9571 19.2931 61.252 19.475 61.5004 19.7112C61.7487 19.9474 61.945 20.2329 62.0767 20.5494C62.222 20.9304 62.2888 21.3368 62.2731 21.7443C62.2573 22.1518 62.1593 22.5518 61.985 22.9205L61.9636 22.9602C61.6721 23.504 61.2761 23.9849 60.7985 24.3756C60.3208 24.7662 59.7709 25.0588 59.18 25.2366C58.7334 25.344 58.2765 25.4024 57.8172 25.4108ZM56.5522 23.8494C56.5044 24.0545 56.527 24.2698 56.6164 24.4605C56.7234 24.601 57.0228 24.6927 57.5575 24.7508C58.0471 24.775 58.5376 24.7245 59.012 24.601C59.5198 24.4455 59.9919 24.1914 60.4014 23.8532C60.8109 23.5151 61.1497 23.0994 61.3984 22.6302C61.5324 22.3451 61.6082 22.036 61.6213 21.7212C61.6345 21.4064 61.5846 21.0922 61.4747 20.7969C61.3757 20.5632 61.2292 20.3527 61.0446 20.1786C60.86 20.0045 60.6413 19.8707 60.4022 19.7855C59.7401 19.562 59.0397 19.4736 58.3428 19.5258C58.1118 19.5073 57.8812 19.5663 57.6875 19.6936C57.4938 19.8209 57.3481 20.0091 57.2734 20.2285L57.087 21.1452C56.9403 21.8694 56.7814 22.6577 56.6439 23.3788L56.5522 23.8494Z" fill="#FEFEFE"/>
<path d="M5.11808 48.602C4.7527 48.2512 4.44352 47.8461 4.20141 47.4012C3.82431 46.7146 3.64155 45.9381 3.6728 45.1554C2.87836 31.6101 3.57808 19.7637 7.89558 10.0837C8.42419 8.89814 8.50669 8.54064 9.60975 7.9937C12.9796 6.75813 16.5944 6.33926 20.1575 6.77147C20.2675 6.46592 20.4845 6.16037 20.3897 5.85481C17.1653 5.59668 13.9202 5.85455 10.777 6.6187C8.63808 6.96092 6.55419 7.33675 6.04086 10.7345C1.72641 22.1593 2.03808 32.979 2.48725 43.6092C2.48402 44.3761 2.59946 45.1388 2.82947 45.8704C3.66975 48.5501 4.48252 48.4584 5.12113 48.599L5.11808 48.602Z" fill="#EBEFFF"/>
<path d="M21.6887 46.9059C21.6887 44.0856 21.4565 41.2654 21.4565 38.4329C21.3422 36.8167 20.9912 35.2261 20.4145 33.712C19.7895 32.6106 19.0741 31.563 18.2756 30.5801C20.7034 35.1938 21.4591 40.5057 20.4145 45.6134C20.8484 46.0473 21.2365 46.4842 21.6887 46.9059Z" fill="#EBEFFF"/>
<path d="M21.9205 47.4652L21.7036 47.3827C20.8883 47.0324 20.1891 46.4581 19.6869 45.7266L19.4761 45.4607H19.6747C19.7205 44.4493 19.7022 43.5235 19.6747 42.6252C19.6564 41.6779 19.635 40.7002 19.69 39.6246V39.4443L19.8702 39.4718C20.3687 39.5202 20.8396 39.7228 21.2175 40.0514C21.5954 40.38 21.8614 40.8183 21.9786 41.3052V41.3296V41.3541C21.9633 42.4052 21.9511 43.3402 21.9389 44.2721C21.9266 45.2041 21.9144 46.1727 21.8991 47.236L21.9205 47.4652ZM19.9925 45.5891C20.4124 46.1739 20.9627 46.653 21.5997 46.9885C21.5997 46.0229 21.6241 45.1552 21.6364 44.266C21.6364 43.3493 21.6608 42.4113 21.6761 41.3724C21.5812 40.9804 21.373 40.625 21.0773 40.3505C20.7817 40.0761 20.4118 39.8948 20.0139 39.8293C19.9711 40.8193 19.9894 41.7329 20.0139 42.6191C20.0139 43.5571 20.0444 44.5257 19.9925 45.5891Z" fill="#373435"/>
<path d="M25.9784 50.8964C25.3411 50.6448 24.8043 50.1906 24.4506 49.6039C24.3406 44.5683 24.2459 39.5205 24.145 34.4819L24.912 35.2458C25.0837 36.3074 25.1624 37.3819 25.1472 38.4572L25.3825 39.0683C25.3782 43.0186 25.5771 46.9665 25.9784 50.8964Z" fill="#EBEFFF"/>
<path d="M26.2321 52.0147L26.0182 51.9445C25.1295 51.6317 24.3939 50.9911 23.9618 50.1539L23.9404 50.1111V50.05C23.9404 48.3725 23.971 46.637 23.971 44.9381V44.8953L23.9924 44.8586C24.4538 44.0183 24.851 43.4775 25.2849 43.5631C25.624 43.6303 26.006 44.0245 26.2627 46.42C26.2627 48.2014 26.2321 50.0164 26.2321 51.7917V52.0147ZM24.2674 50.0286C24.628 50.7071 25.2058 51.245 25.9082 51.5564C25.9082 49.8545 25.9235 48.122 25.9388 46.4414C25.7004 44.2139 25.3582 43.9083 25.2238 43.8808C25.0893 43.8533 24.8265 44.0245 24.3071 44.9778C24.2918 46.6583 24.2918 48.3725 24.2674 50.0317V50.0286Z" fill="#373435"/>
<path d="M20.6251 33.7854C20.6346 33.5262 20.5973 33.2675 20.5151 33.0215C20.6404 33.052 20.7657 33.0673 20.8879 33.1009L22.8649 34.7082C23.1402 34.5915 23.3593 34.3723 23.476 34.097C23.601 34.0951 23.7248 34.1216 23.8381 34.1745C23.9514 34.2275 24.0511 34.3054 24.1299 34.4026C24.1604 35.6829 24.0687 36.9448 24.0993 38.222C24.3045 38.3971 24.4373 38.6421 24.4721 38.9095C25.2906 38.9423 26.1067 39.0208 26.9165 39.1448C26.9624 39.3465 27.0265 39.4718 27.0724 39.6765C26.1586 39.574 25.2362 39.574 24.3224 39.6765V40.254C25.039 40.2172 25.7575 40.2696 26.4612 40.4098C26.4918 40.5809 26.5071 40.6604 26.5376 40.8315C25.7768 40.7403 25.0072 40.7505 24.249 40.862C24.3437 44.0123 24.3743 47.132 24.249 50.2976C23.9985 49.7048 23.5187 49.1273 23.2529 48.5345C23.7274 44.5017 23.7898 40.4311 23.4393 36.3857C22.7144 35.3134 21.7512 34.4235 20.6251 33.7854Z" fill="#373435"/>
<path d="M23.8152 50.4908C23.6798 50.1996 23.5214 49.9196 23.3416 49.6535C23.1468 49.3608 22.9732 49.0544 22.8221 48.7369L22.7641 48.6116L22.7824 48.4741C23.2456 44.5183 23.309 40.5259 22.9718 36.5574C22.2818 35.5989 21.394 34.7997 20.3685 34.2138L20.0935 34.0366L20.1546 33.7127C20.1557 33.5954 20.1371 33.4786 20.0996 33.3674C20.0782 33.2849 20.0599 33.2055 20.0446 33.126L19.9041 32.3774L20.6435 32.5608L20.8024 32.5944C20.8727 32.5944 20.946 32.6219 21.0163 32.6402L21.1202 32.6677L22.9046 34.1161C22.9568 34.0676 22.9976 34.0081 23.0238 33.9419L23.1429 33.6363H23.4821C23.6865 33.6348 23.8883 33.6813 24.0714 33.772C24.2545 33.8628 24.4138 33.9953 24.5363 34.1588L24.6188 34.278V34.4247C24.6341 35.0755 24.6188 35.7294 24.6035 36.3588C24.6035 36.918 24.576 37.4955 24.5852 38.0638C24.6907 38.1846 24.7791 38.3193 24.8479 38.4641C25.3552 38.4855 25.8563 38.5527 26.3452 38.6138L26.9746 38.6902L27.3168 38.7299L27.3932 39.066C27.4108 39.1404 27.4322 39.2139 27.4574 39.2861C27.4879 39.3808 27.5216 39.4786 27.5491 39.5916L27.6988 40.2394L27.0357 40.1874H26.9166L27.1396 41.4097L26.4949 41.3424C25.9177 41.2762 25.3353 41.267 24.7563 41.3149C24.8541 44.7983 24.8479 47.6766 24.7563 50.3411L23.8152 50.4908ZM23.7724 48.4619L23.8304 48.5719C23.8304 48.3519 23.8304 48.1288 23.8304 47.9027C23.8162 48.0901 23.7968 48.2765 23.7724 48.4619ZM23.1154 35.1397C23.3087 35.3459 23.4874 35.5655 23.6502 35.7966C23.6502 35.4452 23.6502 35.0908 23.6502 34.7394C23.497 34.9034 23.316 35.039 23.1154 35.1397Z" fill="#373435"/>
<path d="M22.5226 6.00119C23.9323 5.81603 25.2903 5.34948 26.5162 4.62925C28.9467 3.26827 31.6575 2.48419 34.4392 2.33758C33.2883 1.81781 31.9936 1.70992 30.7726 2.03203C27.7739 2.75984 24.9627 4.11237 22.5226 6.00119Z" fill="#EBEFFF"/>
<path d="M37.7788 4.30906C44.4698 2.38289 51.6079 2.70492 58.0983 5.22573C51.7179 2.42183 44.5575 1.93864 37.8583 3.8599C37.8552 4.17156 37.7788 4.01573 37.7788 4.30906Z" fill="#EBEFFF"/>
</g>
<defs>
<linearGradient id="paint0_linear_2132_293" x1="20.4392" y1="-2.25667" x2="39.9206" y2="62.6193" gradientUnits="userSpaceOnUse">
<stop stop-color="#8A9FE0"/>
<stop offset="0.588" stop-color="#7182B8"/>
<stop offset="1" stop-color="#576490"/>
</linearGradient>
<clipPath id="clip0_2132_293">
<rect width="87" height="55" fill="white"/>
</clipPath>
</defs>
</svg>
