<svg width="37" height="37" viewBox="0 0 37 37" fill="none" xmlns="http://www.w3.org/2000/svg">
<path fill-rule="evenodd" clip-rule="evenodd" d="M18.0729 0.0577825C28.0546 0.0257822 36.172 8.4346 36.2043 18.8413C36.2301 27.1641 31.0795 34.241 23.9105 36.7577C22.9947 36.9463 22.6676 36.3589 22.6661 35.8572C22.6641 35.2361 22.6795 33.2073 22.6717 30.6861C22.6663 28.9292 22.0844 27.7845 21.4337 27.2022C25.4571 26.7225 29.6813 25.1156 29.6588 17.8788C29.6524 15.8206 28.946 14.1434 27.7816 12.8276C27.9681 12.3511 28.5821 10.4326 27.589 7.84102C27.589 7.84102 26.073 7.34101 22.6304 9.78882C21.1851 9.3763 19.6374 9.17137 18.1012 9.16894C16.565 9.18122 15.0204 9.39606 13.5795 9.81783C10.1182 7.39216 8.60164 7.90189 8.60164 7.90189C7.62833 10.4998 8.25417 12.4143 8.4418 12.8896C7.29103 14.2128 6.58959 15.8946 6.59597 17.9528C6.61835 25.1711 10.8434 26.7754 14.8589 27.2385C14.3434 27.7106 13.8779 28.542 13.719 29.7609C12.6904 30.2457 10.076 31.0873 8.45496 28.2129C8.45496 28.2129 7.4933 26.4056 5.67837 26.2791C5.67837 26.2791 3.91618 26.261 5.55902 27.4245C5.55902 27.4245 6.74459 27.9995 7.57366 30.1745C7.57366 30.1745 8.64498 33.534 13.6693 32.3785C13.6832 33.9534 13.7041 35.4376 13.7055 35.886C13.7071 36.384 13.3763 36.9679 12.4739 36.7962C5.28403 34.3292 0.0842368 27.2818 0.0584237 18.9572C0.0261546 8.55048 8.09305 0.0897771 18.0729 0.0577825Z" fill="#284CFF"/>
</svg>
