<svg width="55" height="49" viewBox="0 0 55 49" fill="none" xmlns="http://www.w3.org/2000/svg">
<g clip-path="url(#clip0_2132_378)">
<path d="M27.4574 29.0658C29.9976 29.0658 32.0567 27.0066 32.0567 24.4665C32.0567 21.9264 29.9976 19.8672 27.4574 19.8672C24.9173 19.8672 22.8582 21.9264 22.8582 24.4665C22.8582 27.0066 24.9173 29.0658 27.4574 29.0658Z" fill="#00D8FF"/>
<path d="M27.4574 15.1162C33.6313 15.1162 39.3675 16.0023 43.6917 17.4903C48.902 19.2838 52.106 22.003 52.106 24.4653C52.106 27.0309 48.7105 29.9203 43.1157 31.7731C38.8857 33.1744 33.3182 33.907 27.4574 33.907C21.4476 33.907 15.7585 33.22 11.4799 31.7579C6.06749 29.9081 2.80725 26.9823 2.80725 24.4653C2.80725 22.0227 5.86686 19.3249 11.0042 17.5344C15.3451 16.0221 21.2227 15.1162 27.4574 15.1162Z" stroke="#00D8FF" stroke-width="2.20002" stroke-miterlimit="10"/>
<path d="M19.3183 19.8186C22.4022 14.47 26.0363 9.94363 29.4865 6.94178C33.6435 3.32436 37.5999 1.90779 39.7324 3.13741C41.9545 4.41871 42.7616 8.80369 41.5715 14.5779C40.6717 18.9431 38.5255 24.1306 35.5966 29.2087C32.5948 34.4144 29.1567 39 25.7536 41.9761C21.4477 45.7409 17.2831 47.1028 15.1035 45.8458C12.9878 44.6253 12.1792 40.6279 13.193 35.2823C14.0502 30.762 16.2024 25.2189 19.3183 19.8186Z" stroke="#00D8FF" stroke-width="2.20002" stroke-miterlimit="10"/>
<path d="M19.3258 29.2196C16.2328 23.8755 14.1262 18.4676 13.2476 13.9793C12.1898 8.57139 12.9376 4.43567 15.0685 3.20301C17.2891 1.91716 21.4902 3.4082 25.898 7.32201C29.2312 10.2813 32.6525 14.7316 35.589 19.8052C38.6 25.0063 40.8571 30.2744 41.7341 34.708C42.8451 40.3196 41.9453 44.6073 39.7673 45.8673C37.6531 47.0908 33.7864 45.7959 29.6613 42.2468C26.1776 39.248 22.4493 34.6153 19.3258 29.2196Z" stroke="#00D8FF" stroke-width="2.20002" stroke-miterlimit="10"/>
</g>
<defs>
<clipPath id="clip0_2132_378">
<rect width="55" height="49" fill="white"/>
</clipPath>
</defs>
</svg>
