<svg width="48" height="55" viewBox="0 0 48 55" fill="none" xmlns="http://www.w3.org/2000/svg">
<g clip-path="url(#clip0_2186_497)">
<path fill-rule="evenodd" clip-rule="evenodd" d="M45.4089 42.0457C45.8994 48.345 45.8994 51.298 45.8994 54.5213H31.3245C31.3245 53.8192 31.337 53.1769 31.3497 52.5257C31.3891 50.5011 31.4303 48.3899 31.1022 44.1264C30.6687 37.8845 27.9808 36.4974 23.0385 36.4974H18.6597H0.115234V25.1408H23.7322C29.975 25.1408 33.0966 23.2416 33.0966 18.2135C33.0966 13.7922 29.975 11.1129 23.7322 11.1129H0.115234V0H26.3334C40.4666 0 47.49 6.67531 47.49 17.3385C47.49 25.3141 42.5477 30.5157 35.8712 31.3826C41.5071 32.5096 44.8021 35.7172 45.4089 42.0457Z" fill="white"/>
<path d="M0.115234 54.5212V46.0552H15.5261C18.1002 46.0552 18.6592 47.9643 18.6592 49.1029V54.5212H0.115234Z" fill="white"/>
<path d="M0.115251 45.9976H0.0576172V46.0552V54.5212V54.5788H0.115251H18.6592H18.7168V54.5212V49.103C18.7168 48.5259 18.5755 47.7504 18.1042 47.1176C17.6306 46.4819 16.8294 45.9976 15.5261 45.9976H0.115251Z" stroke="white" stroke-opacity="0.8"/>
</g>
<defs>
<clipPath id="clip0_2186_497">
<rect width="47.49" height="54.6366" fill="white"/>
</clipPath>
</defs>
</svg>
