<svg width="37" height="41" viewBox="0 0 37 41" fill="none" xmlns="http://www.w3.org/2000/svg">
<path d="M36.7034 24.783L31.8583 17.6149V17.0175C31.8583 8.2565 24.6902 1.08838 15.9292 1.08838C14.6681 1.08838 13.407 1.22112 12.146 1.55298C5.1106 3.1459 0 9.6503 0 17.0175C0 20.2697 0.796458 23.1901 2.38937 25.4467C5.17698 29.429 7.03538 32.6148 5.90706 36.929C5.64158 37.9246 5.84069 38.9201 6.50441 39.7166C7.10175 40.5131 7.96458 40.9113 8.96015 40.9113H22.0353C23.5619 40.9113 24.8893 39.8493 25.1548 38.3892C25.2212 38.1237 25.2875 37.8582 25.2875 37.5927C25.4203 36.7962 26.084 36.2653 26.8805 36.2653H27.8097C29.2698 36.2653 30.5309 35.4024 30.9291 34.0086C31.3273 32.4821 31.8583 30.2918 31.9247 27.637H35.376C35.9734 27.637 36.5707 27.106 36.8362 26.575C37.1017 26.0441 37.0353 25.1812 36.7034 24.783ZM26.1504 15.6901C25.6194 16.5529 24.5575 17.0175 23.0309 17.0175C14.8672 17.0175 14.2699 22.991 14.2699 25.8449C14.2699 27.1724 13.2079 28.3007 11.8805 28.3007H11.6814C10.5531 28.3007 9.62387 27.5042 9.35838 26.3759C9.09289 25.1812 8.29644 24.5175 7.49998 23.9202C6.96901 23.5219 6.43804 23.1237 6.17255 22.5264C5.44246 20.9998 4.71238 19.2078 4.71238 16.9512C4.71238 11.7742 8.29644 7.26093 13.1416 6.13261C14.0708 5.9335 14.9336 5.80076 15.8628 5.80076C20.3761 5.80076 24.4247 8.52199 26.1504 12.637C26.2167 12.8361 26.9468 14.4291 26.1504 15.6901Z" fill="#6DA7FF"/>
</svg>
